<?xml version="1.0" encoding="utf-8"?>
<svg version="1.1" xmlns:xlink="http://www.w3.org/1999/xlink" width="27px" height="11px" xmlns="http://www.w3.org/2000/svg">
  <defs>
    <pattern id="BGPattern" patternUnits="userSpaceOnUse" alignment="0 0" imageRepeat="None" />
    <mask fill="white" id="Clip118">
      <path d="M 19.252833723653293 9.692403981264835  L 2.2928121779859336 9.692403981264835  C 1.417460968738669 9.691735644182547  0.7081964753648435 8.968794688403932  0.7081967213114921 8.077233021077216  L 0.7081967213114921 2.830954332552816  C 0.7081967213114921 1.9395887342432918  1.4176532269184008 1.2169941451994268  2.2928121779859336 1.2169941451994268  L 19.252833723653293 1.2169941451994268  C 20.12799267472083 1.2169941451994268  20.837449180327734 1.9395887342432918  20.837449180327734 2.830954332552816  L 20.837449180327734 8.077233021077216  C 20.837449426274382 8.968794688403932  20.128184932900556 9.691735644182547  19.252833723653293 9.692403981264835  Z M 24.187371428571375 7.766064402810495  L 24.187371428571375 3.143333723653768  C 25.08870752994967 3.545326683232967  25.671028421078745 4.452515023304462  25.671028421078745 5.454699063232132  C 25.671028421078745 6.456883103159801  25.08870752994967 7.364071443230462  24.187371428571375 7.766064402810495  Z " fill-rule="evenodd" />
    </mask>
  </defs>
  <g transform="matrix(1 0 0 1 -427 -107 )">
    <path d="M 19.252833723653293 9.692403981264835  L 2.2928121779859336 9.692403981264835  C 1.417460968738669 9.691735644182547  0.7081964753648435 8.968794688403932  0.7081967213114921 8.077233021077216  L 0.7081967213114921 2.830954332552816  C 0.7081967213114921 1.9395887342432918  1.4176532269184008 1.2169941451994268  2.2928121779859336 1.2169941451994268  L 19.252833723653293 1.2169941451994268  C 20.12799267472083 1.2169941451994268  20.837449180327734 1.9395887342432918  20.837449180327734 2.830954332552816  L 20.837449180327734 8.077233021077216  C 20.837449426274382 8.968794688403932  20.128184932900556 9.691735644182547  19.252833723653293 9.692403981264835  Z M 24.187371428571375 7.766064402810495  L 24.187371428571375 3.143333723653768  C 25.08870752994967 3.545326683232967  25.671028421078745 4.452515023304462  25.671028421078745 5.454699063232132  C 25.671028421078745 6.456883103159801  25.08870752994967 7.364071443230462  24.187371428571375 7.766064402810495  Z " fill-rule="nonzero" fill="rgba(0, 0, 0, 1)" stroke="none" transform="matrix(1 0 0 1 427 107 )" class="fill" />
    <path d="M 19.252833723653293 9.692403981264835  L 2.2928121779859336 9.692403981264835  C 1.417460968738669 9.691735644182547  0.7081964753648435 8.968794688403932  0.7081967213114921 8.077233021077216  L 0.7081967213114921 2.830954332552816  C 0.7081967213114921 1.9395887342432918  1.4176532269184008 1.2169941451994268  2.2928121779859336 1.2169941451994268  L 19.252833723653293 1.2169941451994268  C 20.12799267472083 1.2169941451994268  20.837449180327734 1.9395887342432918  20.837449180327734 2.830954332552816  L 20.837449180327734 8.077233021077216  C 20.837449426274382 8.968794688403932  20.128184932900556 9.691735644182547  19.252833723653293 9.692403981264835  Z " stroke-width="0" stroke-dasharray="0" stroke="rgba(255, 255, 255, 0)" fill="none" transform="matrix(1 0 0 1 427 107 )" class="stroke" mask="url(#Clip118)" />
    <path d="M 24.187371428571375 7.766064402810495  L 24.187371428571375 3.143333723653768  C 25.08870752994967 3.545326683232967  25.671028421078745 4.452515023304462  25.671028421078745 5.454699063232132  C 25.671028421078745 6.456883103159801  25.08870752994967 7.364071443230462  24.187371428571375 7.766064402810495  Z " stroke-width="0" stroke-dasharray="0" stroke="rgba(255, 255, 255, 0)" fill="none" transform="matrix(1 0 0 1 427 107 )" class="stroke" mask="url(#Clip118)" />
  </g>
</svg>