<?xml version="1.0" encoding="utf-8"?>
<svg version="1.1" xmlns:xlink="http://www.w3.org/1999/xlink" width="21px" height="14px" xmlns="http://www.w3.org/2000/svg">
  <defs>
    <pattern id="BGPattern" patternUnits="userSpaceOnUse" alignment="0 0" imageRepeat="None" />
    <mask fill="white" id="Clip117">
      <path d="M 19.350381147540944 12.543813524590146  L 18.161127049180294 12.543813524590146  C 17.51817827224103 12.558124602428972  16.985252098221864 12.04873650404592  16.970524590163905 11.40579713114752  L 16.970524590163905 1.5452356557376863  C 16.985983682937047 0.9028275511999215  17.51869247896981 0.3942505239568579  18.161127049180294 0.40856762295079996  L 19.350381147540944 0.40856762295079996  C 19.992815717751526 0.3942505239568517  20.52552451378429 0.9028275511999277  20.540983606557333 1.5452356557376863  L 20.540983606557333 11.40579713114752  C 20.526256098499474 12.04873650404592  19.993329924480207 12.558124602428972  19.350381147540944 12.543813524590146  Z M 13.79918032786884 12.543813524590146  L 12.60992622950819 12.543813524590146  C 11.966977452568926 12.558124602428972  11.43405127854976 12.048736504045932  11.4193237704918 11.40579713114752  L 11.4193237704918 4.201506147540966  C 11.43405127854976 3.5585667746425536  11.966977452568926 3.0491786762595137  12.60992622950819 3.06348975409834  L 13.79918032786884 3.06348975409834  C 14.442129104808103 3.0491786762595137  14.97505527882737 3.5585667746425536  14.989782786885229 4.201506147540966  L 14.989782786885229 11.40579713114752  C 14.97505527882737 12.04873650404592  14.442129104808103 12.558124602428972  13.79918032786884 12.543813524590146  Z M 8.246631147540995 12.543813524590146  L 7.057377049180346 12.543813524590146  C 6.414428272241082 12.558124602428972  5.8815020982218655 12.04873650404592  5.866774590163956 11.40579713114752  L 5.866774590163956 6.855079918032766  C 5.8822336829370485 6.212671813495001  6.414942478969813 5.704094786251938  7.057377049180346 5.71841188524588  L 8.246631147540995 5.71841188524588  C 8.888544393153822 5.704849496406322  9.420422963467416 6.213209626536015  9.435885245901645 6.855079918032766  L 9.435885245901645 11.40579713114752  C 9.421153936063703 12.048198570694126  8.889058468122386 12.557369290583535  8.246631147540995 12.543813524590146  Z M 2.6954303278688414 12.543813524590146  L 1.504827868852452 12.543813524590146  C 0.8624005482710118 12.557369290583535  0.3303050803297438 12.048198570694138  0.31557377049180246 11.40579713114752  L 0.31557377049180246 9.129764344262279  C 0.3310360529260308 8.487894052765515  0.8629146232396252 7.979533922635822  1.504827868852452 7.993096311475393  L 2.6954303278688414 7.993096311475393  C 3.337343573481668 7.979533922635822  3.8692221437953123 8.487894052765515  3.884684426229491 9.129764344262279  L 3.884684426229491 11.40579713114752  C 3.8699531163915992 12.048198570694126  3.3378576484502815 12.557369290583535  2.6954303278688414 12.543813524590146  Z " fill-rule="evenodd" />
    </mask>
  </defs>
  <g transform="matrix(1 0 0 1 -374 -106 )">
    <path d="M 19.350381147540944 12.543813524590146  L 18.161127049180294 12.543813524590146  C 17.51817827224103 12.558124602428972  16.985252098221864 12.04873650404592  16.970524590163905 11.40579713114752  L 16.970524590163905 1.5452356557376863  C 16.985983682937047 0.9028275511999215  17.51869247896981 0.3942505239568579  18.161127049180294 0.40856762295079996  L 19.350381147540944 0.40856762295079996  C 19.992815717751526 0.3942505239568517  20.52552451378429 0.9028275511999277  20.540983606557333 1.5452356557376863  L 20.540983606557333 11.40579713114752  C 20.526256098499474 12.04873650404592  19.993329924480207 12.558124602428972  19.350381147540944 12.543813524590146  Z M 13.79918032786884 12.543813524590146  L 12.60992622950819 12.543813524590146  C 11.966977452568926 12.558124602428972  11.43405127854976 12.048736504045932  11.4193237704918 11.40579713114752  L 11.4193237704918 4.201506147540966  C 11.43405127854976 3.5585667746425536  11.966977452568926 3.0491786762595137  12.60992622950819 3.06348975409834  L 13.79918032786884 3.06348975409834  C 14.442129104808103 3.0491786762595137  14.97505527882737 3.5585667746425536  14.989782786885229 4.201506147540966  L 14.989782786885229 11.40579713114752  C 14.97505527882737 12.04873650404592  14.442129104808103 12.558124602428972  13.79918032786884 12.543813524590146  Z M 8.246631147540995 12.543813524590146  L 7.057377049180346 12.543813524590146  C 6.414428272241082 12.558124602428972  5.8815020982218655 12.04873650404592  5.866774590163956 11.40579713114752  L 5.866774590163956 6.855079918032766  C 5.8822336829370485 6.212671813495001  6.414942478969813 5.704094786251938  7.057377049180346 5.71841188524588  L 8.246631147540995 5.71841188524588  C 8.888544393153822 5.704849496406322  9.420422963467416 6.213209626536015  9.435885245901645 6.855079918032766  L 9.435885245901645 11.40579713114752  C 9.421153936063703 12.048198570694126  8.889058468122386 12.557369290583535  8.246631147540995 12.543813524590146  Z M 2.6954303278688414 12.543813524590146  L 1.504827868852452 12.543813524590146  C 0.8624005482710118 12.557369290583535  0.3303050803297438 12.048198570694138  0.31557377049180246 11.40579713114752  L 0.31557377049180246 9.129764344262279  C 0.3310360529260308 8.487894052765515  0.8629146232396252 7.979533922635822  1.504827868852452 7.993096311475393  L 2.6954303278688414 7.993096311475393  C 3.337343573481668 7.979533922635822  3.8692221437953123 8.487894052765515  3.884684426229491 9.129764344262279  L 3.884684426229491 11.40579713114752  C 3.8699531163915992 12.048198570694126  3.3378576484502815 12.557369290583535  2.6954303278688414 12.543813524590146  Z " fill-rule="nonzero" fill="rgba(0, 0, 0, 1)" stroke="none" transform="matrix(1 0 0 1 374 106 )" class="fill" />
    <path d="M 19.350381147540944 12.543813524590146  L 18.161127049180294 12.543813524590146  C 17.51817827224103 12.558124602428972  16.985252098221864 12.04873650404592  16.970524590163905 11.40579713114752  L 16.970524590163905 1.5452356557376863  C 16.985983682937047 0.9028275511999215  17.51869247896981 0.3942505239568579  18.161127049180294 0.40856762295079996  L 19.350381147540944 0.40856762295079996  C 19.992815717751526 0.3942505239568517  20.52552451378429 0.9028275511999277  20.540983606557333 1.5452356557376863  L 20.540983606557333 11.40579713114752  C 20.526256098499474 12.04873650404592  19.993329924480207 12.558124602428972  19.350381147540944 12.543813524590146  Z " stroke-width="0" stroke-dasharray="0" stroke="rgba(255, 255, 255, 0)" fill="none" transform="matrix(1 0 0 1 374 106 )" class="stroke" mask="url(#Clip117)" />
    <path d="M 13.79918032786884 12.543813524590146  L 12.60992622950819 12.543813524590146  C 11.966977452568926 12.558124602428972  11.43405127854976 12.048736504045932  11.4193237704918 11.40579713114752  L 11.4193237704918 4.201506147540966  C 11.43405127854976 3.5585667746425536  11.966977452568926 3.0491786762595137  12.60992622950819 3.06348975409834  L 13.79918032786884 3.06348975409834  C 14.442129104808103 3.0491786762595137  14.97505527882737 3.5585667746425536  14.989782786885229 4.201506147540966  L 14.989782786885229 11.40579713114752  C 14.97505527882737 12.04873650404592  14.442129104808103 12.558124602428972  13.79918032786884 12.543813524590146  Z " stroke-width="0" stroke-dasharray="0" stroke="rgba(255, 255, 255, 0)" fill="none" transform="matrix(1 0 0 1 374 106 )" class="stroke" mask="url(#Clip117)" />
    <path d="M 8.246631147540995 12.543813524590146  L 7.057377049180346 12.543813524590146  C 6.414428272241082 12.558124602428972  5.8815020982218655 12.04873650404592  5.866774590163956 11.40579713114752  L 5.866774590163956 6.855079918032766  C 5.8822336829370485 6.212671813495001  6.414942478969813 5.704094786251938  7.057377049180346 5.71841188524588  L 8.246631147540995 5.71841188524588  C 8.888544393153822 5.704849496406322  9.420422963467416 6.213209626536015  9.435885245901645 6.855079918032766  L 9.435885245901645 11.40579713114752  C 9.421153936063703 12.048198570694126  8.889058468122386 12.557369290583535  8.246631147540995 12.543813524590146  Z " stroke-width="0" stroke-dasharray="0" stroke="rgba(255, 255, 255, 0)" fill="none" transform="matrix(1 0 0 1 374 106 )" class="stroke" mask="url(#Clip117)" />
    <path d="M 2.6954303278688414 12.543813524590146  L 1.504827868852452 12.543813524590146  C 0.8624005482710118 12.557369290583535  0.3303050803297438 12.048198570694138  0.31557377049180246 11.40579713114752  L 0.31557377049180246 9.129764344262279  C 0.3310360529260308 8.487894052765515  0.8629146232396252 7.979533922635822  1.504827868852452 7.993096311475393  L 2.6954303278688414 7.993096311475393  C 3.337343573481668 7.979533922635822  3.8692221437953123 8.487894052765515  3.884684426229491 9.129764344262279  L 3.884684426229491 11.40579713114752  C 3.8699531163915992 12.048198570694126  3.3378576484502815 12.557369290583535  2.6954303278688414 12.543813524590146  Z " stroke-width="0" stroke-dasharray="0" stroke="rgba(255, 255, 255, 0)" fill="none" transform="matrix(1 0 0 1 374 106 )" class="stroke" mask="url(#Clip117)" />
  </g>
</svg>