<?xml version="1.0" encoding="utf-8"?>
<svg version="1.1" xmlns:xlink="http://www.w3.org/1999/xlink" width="23px" height="17px" xmlns="http://www.w3.org/2000/svg">
  <defs>
    <linearGradient gradientUnits="userSpaceOnUse" x1="11.0002" y1="0" x2="11.0002" y2="19.6797" id="LinearGradient122">
      <stop id="Stop123" stop-color="#d53326" offset="0" />
      <stop id="Stop124" stop-color="#eb7672" offset="0.07" />
      <stop id="Stop125" stop-color="#d53326" offset="1" />
    </linearGradient>
    <pattern id="BGPattern" patternUnits="userSpaceOnUse" alignment="0 0" imageRepeat="None" />
    <mask fill="white" id="Clip126">
      <path d="M 9.94238 0  L 16.5791 0  C 17.2286 -0.0003701806861153395  17.8776 0.053254117247172245  18.5186 0.15918190526317522  C 19.1283 0.23232389698835493  19.7192 0.42024487572816915  20.2598 0.713868842509419  C 20.7763 0.9916078110877963  21.2113 1.4019617646629567  21.5205 1.9033217079422777  C 21.8402 2.396411652157214  22 3.040021579343276  22 3.8330114896294343  C 22.0071 4.30111143667158  21.9298 4.766591384010137  21.7725 5.207031334181557  C 21.6445 5.600391289679312  21.4482 5.968291248057446  21.1924 6.29199121143609  C 20.9372 6.612541175171103  20.6401 6.897121142975533  20.3096 7.137701115757843  C 19.9568 7.394201086739066  19.5851 7.623021060851828  19.1982 7.823241038200212  C 19.4272 7.916631027634661  19.6471 8.031661014620902  19.8545 8.166990999310526  C 20.1302 8.326840981226114  20.3767 8.533000957902484  20.585 8.775390930480023  C 20.8424 9.078000896244653  21.0403 9.427600856693134  21.166 9.805660813921833  C 21.3342 10.21120076804162  21.418 10.713800711180655  21.418 11.312500643447546  C 21.4257 12.070900557646997  21.2622 12.821800472694953  20.9395 13.506800395198413  C 20.6046 14.194600317385099  20.112 14.792000249799065  19.5029 15.25000019798386  C 18.8807 15.725800144154878  18.1065 16.10460010129986  17.1816 16.386700069384858  C 16.274 16.651000039483637  15.2228 16.78320002452737  14.0283 16.78320002452737  L 6.53711 16.78320002452737  L 8.00293 9.55957084176289  L 13.4043 9.55957084176289  L 12.313500000000001 15.118200212894875  L 13.3242 15.118200212894875  C 13.8283 15.11770021295144  14.2491 14.96790022989886  14.5859 14.668900263725815  C 14.9315 14.356400299080077  15.214100000000002 13.979200341754083  15.418000000000001 13.558600389338089  C 15.6344 13.125300438358893  15.787699999999997 12.662200490751081  15.8721 12.184600544783704  C 15.9657 11.758500592989947  16.0163 11.32400064214651  16.0234 10.887700691506716  C 16.0234 10.27060076132148  15.8976 9.78539081621505  15.645499999999998 9.433590856015464  C 15.460399999999998 9.142590888937352  15.1202 8.95299091038749  14.7217 8.880860918547818  L 14.7217 8.85254092175176  L 1.5878899999999998 8.85254092175176  L 1.94531 7  L 15.0557 7  C 15.430800000000001 7.078921122407839  15.790400000000002 6.935541138628938  16.0723 6.685551166911216  C 16.3451 6.451041193442185  16.5684 6.163331225991864  16.7285 5.839841262589463  C 16.8966 5.48651130256297  17.0234 5.11429134467357  17.1064 4.7314513879856515  C 17.1848 4.376371428157142  17.2272 4.014111469140933  17.2324 3.6503915102898983  C 17.2353 3.138081568249391  17.1171 2.7053016172113655  16.8789 2.3525416571203865  C 16.6602 1.9825616989775687  16.3067 1.7978517198744821  15.8193 1.7978517198744821  L 15.0625 1.7978517198744821  L 14.0361 6.387701200608069  L 8.64648 6.387701200608069  L 9.94238 0  Z M 1.4941400000000002 9.508790847507814  L 2.08789 9.508790847507814  L 0.59375 16.67090003723228  L 0 16.67090003723228  L 1.4941400000000002 9.508790847507814  Z M 3.6318399999999995 9.508790847507814  L 2.1377 16.67090003723228  L 1.18848 16.67090003723228  L 2.68262 9.508790847507814  L 3.6318399999999995 9.508790847507814  Z M 4.17578 9.508790847507814  L 5.48242 9.508790847507814  L 3.9872999999999994 16.67090003723228  L 2.68164 16.67090003723228  L 4.17578 9.508790847507814  Z M 6.06641 9.508790847507814  L 7.491209999999999 9.508790847507814  L 5.997070000000001 16.67090003723228  L 4.57422 16.67090003723228  L 6.06641 9.508790847507814  Z M 3.9668 0.03418161940491349  L 2.67969 6.3662112030393105  L 2.08594 6.3662112030393105  L 3.3720699999999995 0.03418161940491349  L 3.9668 0.03418161940491349  Z M 5.50977 0.03418161940491349  L 4.22266 6.3662112030393105  L 3.27539 6.3662112030393105  L 4.55957 0.03418161940491349  L 5.50977 0.03418161940491349  Z M 7.3603499999999995 0.03418161940491349  L 6.07422 6.3662112030393105  L 4.76758 6.3662112030393105  L 6.053709999999999 0.03418161940491349  L 7.3603499999999995 0.03418161940491349  Z M 9.36816 0.03418161940491349  L 8.08203 6.3662112030393105  L 6.65723 6.3662112030393105  L 7.943359999999999 0.03418161940491349  L 9.36816 0.03418161940491349  Z " fill-rule="evenodd" />
    </mask>
  </defs>
  <g transform="matrix(1 0 0 1 -128 -879 )">
    <path d="M 9.94238 0  L 16.5791 0  C 17.2286 -0.0003701806861153395  17.8776 0.053254117247172245  18.5186 0.15918190526317522  C 19.1283 0.23232389698835493  19.7192 0.42024487572816915  20.2598 0.713868842509419  C 20.7763 0.9916078110877963  21.2113 1.4019617646629567  21.5205 1.9033217079422777  C 21.8402 2.396411652157214  22 3.040021579343276  22 3.8330114896294343  C 22.0071 4.30111143667158  21.9298 4.766591384010137  21.7725 5.207031334181557  C 21.6445 5.600391289679312  21.4482 5.968291248057446  21.1924 6.29199121143609  C 20.9372 6.612541175171103  20.6401 6.897121142975533  20.3096 7.137701115757843  C 19.9568 7.394201086739066  19.5851 7.623021060851828  19.1982 7.823241038200212  C 19.4272 7.916631027634661  19.6471 8.031661014620902  19.8545 8.166990999310526  C 20.1302 8.326840981226114  20.3767 8.533000957902484  20.585 8.775390930480023  C 20.8424 9.078000896244653  21.0403 9.427600856693134  21.166 9.805660813921833  C 21.3342 10.21120076804162  21.418 10.713800711180655  21.418 11.312500643447546  C 21.4257 12.070900557646997  21.2622 12.821800472694953  20.9395 13.506800395198413  C 20.6046 14.194600317385099  20.112 14.792000249799065  19.5029 15.25000019798386  C 18.8807 15.725800144154878  18.1065 16.10460010129986  17.1816 16.386700069384858  C 16.274 16.651000039483637  15.2228 16.78320002452737  14.0283 16.78320002452737  L 6.53711 16.78320002452737  L 8.00293 9.55957084176289  L 13.4043 9.55957084176289  L 12.313500000000001 15.118200212894875  L 13.3242 15.118200212894875  C 13.8283 15.11770021295144  14.2491 14.96790022989886  14.5859 14.668900263725815  C 14.9315 14.356400299080077  15.214100000000002 13.979200341754083  15.418000000000001 13.558600389338089  C 15.6344 13.125300438358893  15.787699999999997 12.662200490751081  15.8721 12.184600544783704  C 15.9657 11.758500592989947  16.0163 11.32400064214651  16.0234 10.887700691506716  C 16.0234 10.27060076132148  15.8976 9.78539081621505  15.645499999999998 9.433590856015464  C 15.460399999999998 9.142590888937352  15.1202 8.95299091038749  14.7217 8.880860918547818  L 14.7217 8.85254092175176  L 1.5878899999999998 8.85254092175176  L 1.94531 7  L 15.0557 7  C 15.430800000000001 7.078921122407839  15.790400000000002 6.935541138628938  16.0723 6.685551166911216  C 16.3451 6.451041193442185  16.5684 6.163331225991864  16.7285 5.839841262589463  C 16.8966 5.48651130256297  17.0234 5.11429134467357  17.1064 4.7314513879856515  C 17.1848 4.376371428157142  17.2272 4.014111469140933  17.2324 3.6503915102898983  C 17.2353 3.138081568249391  17.1171 2.7053016172113655  16.8789 2.3525416571203865  C 16.6602 1.9825616989775687  16.3067 1.7978517198744821  15.8193 1.7978517198744821  L 15.0625 1.7978517198744821  L 14.0361 6.387701200608069  L 8.64648 6.387701200608069  L 9.94238 0  Z M 1.4941400000000002 9.508790847507814  L 2.08789 9.508790847507814  L 0.59375 16.67090003723228  L 0 16.67090003723228  L 1.4941400000000002 9.508790847507814  Z M 3.6318399999999995 9.508790847507814  L 2.1377 16.67090003723228  L 1.18848 16.67090003723228  L 2.68262 9.508790847507814  L 3.6318399999999995 9.508790847507814  Z M 4.17578 9.508790847507814  L 5.48242 9.508790847507814  L 3.9872999999999994 16.67090003723228  L 2.68164 16.67090003723228  L 4.17578 9.508790847507814  Z M 6.06641 9.508790847507814  L 7.491209999999999 9.508790847507814  L 5.997070000000001 16.67090003723228  L 4.57422 16.67090003723228  L 6.06641 9.508790847507814  Z M 3.9668 0.03418161940491349  L 2.67969 6.3662112030393105  L 2.08594 6.3662112030393105  L 3.3720699999999995 0.03418161940491349  L 3.9668 0.03418161940491349  Z M 5.50977 0.03418161940491349  L 4.22266 6.3662112030393105  L 3.27539 6.3662112030393105  L 4.55957 0.03418161940491349  L 5.50977 0.03418161940491349  Z M 7.3603499999999995 0.03418161940491349  L 6.07422 6.3662112030393105  L 4.76758 6.3662112030393105  L 6.053709999999999 0.03418161940491349  L 7.3603499999999995 0.03418161940491349  Z M 9.36816 0.03418161940491349  L 8.08203 6.3662112030393105  L 6.65723 6.3662112030393105  L 7.943359999999999 0.03418161940491349  L 9.36816 0.03418161940491349  Z " fill-rule="nonzero" fill="url(#LinearGradient122)" stroke="none" transform="matrix(1 0 0 1 128 879 )" class="fill" />
    <path d="M 9.94238 0  L 16.5791 0  C 17.2286 -0.0003701806861153395  17.8776 0.053254117247172245  18.5186 0.15918190526317522  C 19.1283 0.23232389698835493  19.7192 0.42024487572816915  20.2598 0.713868842509419  C 20.7763 0.9916078110877963  21.2113 1.4019617646629567  21.5205 1.9033217079422777  C 21.8402 2.396411652157214  22 3.040021579343276  22 3.8330114896294343  C 22.0071 4.30111143667158  21.9298 4.766591384010137  21.7725 5.207031334181557  C 21.6445 5.600391289679312  21.4482 5.968291248057446  21.1924 6.29199121143609  C 20.9372 6.612541175171103  20.6401 6.897121142975533  20.3096 7.137701115757843  C 19.9568 7.394201086739066  19.5851 7.623021060851828  19.1982 7.823241038200212  C 19.4272 7.916631027634661  19.6471 8.031661014620902  19.8545 8.166990999310526  C 20.1302 8.326840981226114  20.3767 8.533000957902484  20.585 8.775390930480023  C 20.8424 9.078000896244653  21.0403 9.427600856693134  21.166 9.805660813921833  C 21.3342 10.21120076804162  21.418 10.713800711180655  21.418 11.312500643447546  C 21.4257 12.070900557646997  21.2622 12.821800472694953  20.9395 13.506800395198413  C 20.6046 14.194600317385099  20.112 14.792000249799065  19.5029 15.25000019798386  C 18.8807 15.725800144154878  18.1065 16.10460010129986  17.1816 16.386700069384858  C 16.274 16.651000039483637  15.2228 16.78320002452737  14.0283 16.78320002452737  L 6.53711 16.78320002452737  L 8.00293 9.55957084176289  L 13.4043 9.55957084176289  L 12.313500000000001 15.118200212894875  L 13.3242 15.118200212894875  C 13.8283 15.11770021295144  14.2491 14.96790022989886  14.5859 14.668900263725815  C 14.9315 14.356400299080077  15.214100000000002 13.979200341754083  15.418000000000001 13.558600389338089  C 15.6344 13.125300438358893  15.787699999999997 12.662200490751081  15.8721 12.184600544783704  C 15.9657 11.758500592989947  16.0163 11.32400064214651  16.0234 10.887700691506716  C 16.0234 10.27060076132148  15.8976 9.78539081621505  15.645499999999998 9.433590856015464  C 15.460399999999998 9.142590888937352  15.1202 8.95299091038749  14.7217 8.880860918547818  L 14.7217 8.85254092175176  L 1.5878899999999998 8.85254092175176  L 1.94531 7  L 15.0557 7  C 15.430800000000001 7.078921122407839  15.790400000000002 6.935541138628938  16.0723 6.685551166911216  C 16.3451 6.451041193442185  16.5684 6.163331225991864  16.7285 5.839841262589463  C 16.8966 5.48651130256297  17.0234 5.11429134467357  17.1064 4.7314513879856515  C 17.1848 4.376371428157142  17.2272 4.014111469140933  17.2324 3.6503915102898983  C 17.2353 3.138081568249391  17.1171 2.7053016172113655  16.8789 2.3525416571203865  C 16.6602 1.9825616989775687  16.3067 1.7978517198744821  15.8193 1.7978517198744821  L 15.0625 1.7978517198744821  L 14.0361 6.387701200608069  L 8.64648 6.387701200608069  L 9.94238 0  Z " stroke-width="0" stroke-dasharray="0" stroke="rgba(255, 255, 255, 0)" fill="none" transform="matrix(1 0 0 1 128 879 )" class="stroke" mask="url(#Clip126)" />
    <path d="M 1.4941400000000002 9.508790847507814  L 2.08789 9.508790847507814  L 0.59375 16.67090003723228  L 0 16.67090003723228  L 1.4941400000000002 9.508790847507814  Z " stroke-width="0" stroke-dasharray="0" stroke="rgba(255, 255, 255, 0)" fill="none" transform="matrix(1 0 0 1 128 879 )" class="stroke" mask="url(#Clip126)" />
    <path d="M 3.6318399999999995 9.508790847507814  L 2.1377 16.67090003723228  L 1.18848 16.67090003723228  L 2.68262 9.508790847507814  L 3.6318399999999995 9.508790847507814  Z " stroke-width="0" stroke-dasharray="0" stroke="rgba(255, 255, 255, 0)" fill="none" transform="matrix(1 0 0 1 128 879 )" class="stroke" mask="url(#Clip126)" />
    <path d="M 4.17578 9.508790847507814  L 5.48242 9.508790847507814  L 3.9872999999999994 16.67090003723228  L 2.68164 16.67090003723228  L 4.17578 9.508790847507814  Z " stroke-width="0" stroke-dasharray="0" stroke="rgba(255, 255, 255, 0)" fill="none" transform="matrix(1 0 0 1 128 879 )" class="stroke" mask="url(#Clip126)" />
    <path d="M 6.06641 9.508790847507814  L 7.491209999999999 9.508790847507814  L 5.997070000000001 16.67090003723228  L 4.57422 16.67090003723228  L 6.06641 9.508790847507814  Z " stroke-width="0" stroke-dasharray="0" stroke="rgba(255, 255, 255, 0)" fill="none" transform="matrix(1 0 0 1 128 879 )" class="stroke" mask="url(#Clip126)" />
    <path d="M 3.9668 0.03418161940491349  L 2.67969 6.3662112030393105  L 2.08594 6.3662112030393105  L 3.3720699999999995 0.03418161940491349  L 3.9668 0.03418161940491349  Z " stroke-width="0" stroke-dasharray="0" stroke="rgba(255, 255, 255, 0)" fill="none" transform="matrix(1 0 0 1 128 879 )" class="stroke" mask="url(#Clip126)" />
    <path d="M 5.50977 0.03418161940491349  L 4.22266 6.3662112030393105  L 3.27539 6.3662112030393105  L 4.55957 0.03418161940491349  L 5.50977 0.03418161940491349  Z " stroke-width="0" stroke-dasharray="0" stroke="rgba(255, 255, 255, 0)" fill="none" transform="matrix(1 0 0 1 128 879 )" class="stroke" mask="url(#Clip126)" />
    <path d="M 7.3603499999999995 0.03418161940491349  L 6.07422 6.3662112030393105  L 4.76758 6.3662112030393105  L 6.053709999999999 0.03418161940491349  L 7.3603499999999995 0.03418161940491349  Z " stroke-width="0" stroke-dasharray="0" stroke="rgba(255, 255, 255, 0)" fill="none" transform="matrix(1 0 0 1 128 879 )" class="stroke" mask="url(#Clip126)" />
    <path d="M 9.36816 0.03418161940491349  L 8.08203 6.3662112030393105  L 6.65723 6.3662112030393105  L 7.943359999999999 0.03418161940491349  L 9.36816 0.03418161940491349  Z " stroke-width="0" stroke-dasharray="0" stroke="rgba(255, 255, 255, 0)" fill="none" transform="matrix(1 0 0 1 128 879 )" class="stroke" mask="url(#Clip126)" />
  </g>
</svg>