<?xml version="1.0" encoding="utf-8"?>
<svg version="1.1" xmlns:xlink="http://www.w3.org/1999/xlink" width="18px" height="16px" xmlns="http://www.w3.org/2000/svg">
  <defs>
    <pattern id="BGPattern" patternUnits="userSpaceOnUse" alignment="0 0" imageRepeat="None" />
    <mask fill="white" id="Clip127">
      <path d="M 1.871555294117647 0  L 14.398517647058823 0  C 15.430235294117647 7.686432000000001E-05  16.269882352941178 0.8431253333333333  16.27009411764706 1.879168  L 16.27009411764706 3.720832  C 16.27009411764706 4.066549333333334  15.991411764705882 4.3477120000000005  15.64655294117647 4.347914666666667  C 15.301588235294117 4.347914666666667  15.022058823529413 4.066677333333334  15.022058823529413 3.720832  L 15.022058823529413 1.879168  C 15.02184705882353 1.5341973333333334  14.742741176470588 1.2532053333333333  14.398517647058823 1.25312  L 1.871555294117647 1.25312  C 1.5279988235294115 1.2532053333333333  1.2482894117647059 1.5341973333333334  1.2480458823529412 1.879168  L 1.2480458823529412 13.206293333333333  C 1.24812 13.552  1.5279035294117647 13.832213333333334  1.871555294117647 13.832320000000001  L 14.340600000000002 13.832320000000001  C 14.685035294117647 13.832320000000001  14.965094117647057 13.552  14.965200000000001 13.206293333333333  L 14.965200000000001 11.2688  C 14.965200000000001 10.922346666666666  15.243776470588235 10.642773333333334  15.588741176470588 10.642709333333332  C 15.93370588235294 10.642709333333332  16.212176470588236 10.922346666666666  16.212176470588236 11.2688  L 16.212176470588236 13.206293333333333  C 16.212176470588236 14.242453333333334  15.373164705882353 15.08544  14.340600000000002 15  L 1.871555294117647 15  C 0.839736 15.085333333333333  7.548797647058824E-05 14.242453333333334  0 13.206293333333333  L 0 1.879168  C 0.000237222 0.8431295999999999  0.8398355294117648 8.319178666666667E-05  1.871555294117647 0  Z M 9.984377647058825 4.973962666666667  L 16.22255294117647 4.973962666666667  C 16.910682352941176 4.973962666666667  17.470588235294116 5.5360320000000005  17.470588235294116 6.227082666666666  L 17.470588235294116 8.733333333333333  C 17.470588235294116 9.424373333333333  16.910682352941176 9.986453333333333  16.22255294117647 9.986453333333333  L 9.984377647058825 9.986453333333333  C 9.296227058823527 9.986453333333333  8.736363529411765 9.424373333333333  8.736331764705882 8.733333333333333  L 8.736331764705882 6.227082666666666  C 8.73635294117647 5.5360320000000005  9.296227058823527 4.973962666666667  9.984377647058825 4.973962666666667  Z M 9.984377647058825 6.227082666666666  L 9.984377647058825 8.733333333333333  L 16.224564705882354 8.733333333333333  L 16.22255294117647 6.227082666666666  L 9.984377647058825 6.227082666666666  Z M 11.217917647058824 7.087498666666666  C 11.332482352941177 6.972469333333334  11.488129411764705 6.908330666666667  11.650129411764707 6.908330666666667  C 11.812129411764706 6.908330666666667  11.967882352941176 6.972469333333334  12.082341176470589 7.087498666666666  C 12.19690588235294 7.202528  12.261282352941176 7.3592  12.261282352941176 7.521877333333333  C 12.261176470588236 7.684341333333333  12.19669411764706 7.840277333333333  12.082341176470589 7.955210666666667  C 11.967776470588236 8.07024  11.812129411764706 8.135413333333334  11.650129411764707 8.135413333333334  C 11.488129411764705 8.135413333333334  11.332482352941177 8.07024  11.217917647058824 7.955210666666667  C 11.103564705882354 7.840277333333333  11.039188235294118 7.684341333333333  11.039082352941177 7.521877333333333  C 11.039082352941177 7.3592  11.103352941176471 7.202528  11.217917647058824 7.087498666666666  Z " fill-rule="evenodd" />
    </mask>
  </defs>
  <g transform="matrix(1 0 0 1 -204 -880 )">
    <path d="M 1.871555294117647 0  L 14.398517647058823 0  C 15.430235294117647 7.686432000000001E-05  16.269882352941178 0.8431253333333333  16.27009411764706 1.879168  L 16.27009411764706 3.720832  C 16.27009411764706 4.066549333333334  15.991411764705882 4.3477120000000005  15.64655294117647 4.347914666666667  C 15.301588235294117 4.347914666666667  15.022058823529413 4.066677333333334  15.022058823529413 3.720832  L 15.022058823529413 1.879168  C 15.02184705882353 1.5341973333333334  14.742741176470588 1.2532053333333333  14.398517647058823 1.25312  L 1.871555294117647 1.25312  C 1.5279988235294115 1.2532053333333333  1.2482894117647059 1.5341973333333334  1.2480458823529412 1.879168  L 1.2480458823529412 13.206293333333333  C 1.24812 13.552  1.5279035294117647 13.832213333333334  1.871555294117647 13.832320000000001  L 14.340600000000002 13.832320000000001  C 14.685035294117647 13.832320000000001  14.965094117647057 13.552  14.965200000000001 13.206293333333333  L 14.965200000000001 11.2688  C 14.965200000000001 10.922346666666666  15.243776470588235 10.642773333333334  15.588741176470588 10.642709333333332  C 15.93370588235294 10.642709333333332  16.212176470588236 10.922346666666666  16.212176470588236 11.2688  L 16.212176470588236 13.206293333333333  C 16.212176470588236 14.242453333333334  15.373164705882353 15.08544  14.340600000000002 15  L 1.871555294117647 15  C 0.839736 15.085333333333333  7.548797647058824E-05 14.242453333333334  0 13.206293333333333  L 0 1.879168  C 0.000237222 0.8431295999999999  0.8398355294117648 8.319178666666667E-05  1.871555294117647 0  Z M 9.984377647058825 4.973962666666667  L 16.22255294117647 4.973962666666667  C 16.910682352941176 4.973962666666667  17.470588235294116 5.5360320000000005  17.470588235294116 6.227082666666666  L 17.470588235294116 8.733333333333333  C 17.470588235294116 9.424373333333333  16.910682352941176 9.986453333333333  16.22255294117647 9.986453333333333  L 9.984377647058825 9.986453333333333  C 9.296227058823527 9.986453333333333  8.736363529411765 9.424373333333333  8.736331764705882 8.733333333333333  L 8.736331764705882 6.227082666666666  C 8.73635294117647 5.5360320000000005  9.296227058823527 4.973962666666667  9.984377647058825 4.973962666666667  Z M 9.984377647058825 6.227082666666666  L 9.984377647058825 8.733333333333333  L 16.224564705882354 8.733333333333333  L 16.22255294117647 6.227082666666666  L 9.984377647058825 6.227082666666666  Z M 11.217917647058824 7.087498666666666  C 11.332482352941177 6.972469333333334  11.488129411764705 6.908330666666667  11.650129411764707 6.908330666666667  C 11.812129411764706 6.908330666666667  11.967882352941176 6.972469333333334  12.082341176470589 7.087498666666666  C 12.19690588235294 7.202528  12.261282352941176 7.3592  12.261282352941176 7.521877333333333  C 12.261176470588236 7.684341333333333  12.19669411764706 7.840277333333333  12.082341176470589 7.955210666666667  C 11.967776470588236 8.07024  11.812129411764706 8.135413333333334  11.650129411764707 8.135413333333334  C 11.488129411764705 8.135413333333334  11.332482352941177 8.07024  11.217917647058824 7.955210666666667  C 11.103564705882354 7.840277333333333  11.039188235294118 7.684341333333333  11.039082352941177 7.521877333333333  C 11.039082352941177 7.3592  11.103352941176471 7.202528  11.217917647058824 7.087498666666666  Z " fill-rule="nonzero" fill="rgba(182, 182, 182, 1)" stroke="none" transform="matrix(1 0 0 1 204 880 )" class="fill" />
    <path d="M 1.871555294117647 0  L 14.398517647058823 0  C 15.430235294117647 7.686432000000001E-05  16.269882352941178 0.8431253333333333  16.27009411764706 1.879168  L 16.27009411764706 3.720832  C 16.27009411764706 4.066549333333334  15.991411764705882 4.3477120000000005  15.64655294117647 4.347914666666667  C 15.301588235294117 4.347914666666667  15.022058823529413 4.066677333333334  15.022058823529413 3.720832  L 15.022058823529413 1.879168  C 15.02184705882353 1.5341973333333334  14.742741176470588 1.2532053333333333  14.398517647058823 1.25312  L 1.871555294117647 1.25312  C 1.5279988235294115 1.2532053333333333  1.2482894117647059 1.5341973333333334  1.2480458823529412 1.879168  L 1.2480458823529412 13.206293333333333  C 1.24812 13.552  1.5279035294117647 13.832213333333334  1.871555294117647 13.832320000000001  L 14.340600000000002 13.832320000000001  C 14.685035294117647 13.832320000000001  14.965094117647057 13.552  14.965200000000001 13.206293333333333  L 14.965200000000001 11.2688  C 14.965200000000001 10.922346666666666  15.243776470588235 10.642773333333334  15.588741176470588 10.642709333333332  C 15.93370588235294 10.642709333333332  16.212176470588236 10.922346666666666  16.212176470588236 11.2688  L 16.212176470588236 13.206293333333333  C 16.212176470588236 14.242453333333334  15.373164705882353 15.08544  14.340600000000002 15  L 1.871555294117647 15  C 0.839736 15.085333333333333  7.548797647058824E-05 14.242453333333334  0 13.206293333333333  L 0 1.879168  C 0.000237222 0.8431295999999999  0.8398355294117648 8.319178666666667E-05  1.871555294117647 0  Z " stroke-width="0" stroke-dasharray="0" stroke="rgba(255, 255, 255, 0)" fill="none" transform="matrix(1 0 0 1 204 880 )" class="stroke" mask="url(#Clip127)" />
    <path d="M 9.984377647058825 4.973962666666667  L 16.22255294117647 4.973962666666667  C 16.910682352941176 4.973962666666667  17.470588235294116 5.5360320000000005  17.470588235294116 6.227082666666666  L 17.470588235294116 8.733333333333333  C 17.470588235294116 9.424373333333333  16.910682352941176 9.986453333333333  16.22255294117647 9.986453333333333  L 9.984377647058825 9.986453333333333  C 9.296227058823527 9.986453333333333  8.736363529411765 9.424373333333333  8.736331764705882 8.733333333333333  L 8.736331764705882 6.227082666666666  C 8.73635294117647 5.5360320000000005  9.296227058823527 4.973962666666667  9.984377647058825 4.973962666666667  Z " stroke-width="0" stroke-dasharray="0" stroke="rgba(255, 255, 255, 0)" fill="none" transform="matrix(1 0 0 1 204 880 )" class="stroke" mask="url(#Clip127)" />
    <path d="M 9.984377647058825 6.227082666666666  L 9.984377647058825 8.733333333333333  L 16.224564705882354 8.733333333333333  L 16.22255294117647 6.227082666666666  L 9.984377647058825 6.227082666666666  Z " stroke-width="0" stroke-dasharray="0" stroke="rgba(255, 255, 255, 0)" fill="none" transform="matrix(1 0 0 1 204 880 )" class="stroke" mask="url(#Clip127)" />
    <path d="M 11.217917647058824 7.087498666666666  C 11.332482352941177 6.972469333333334  11.488129411764705 6.908330666666667  11.650129411764707 6.908330666666667  C 11.812129411764706 6.908330666666667  11.967882352941176 6.972469333333334  12.082341176470589 7.087498666666666  C 12.19690588235294 7.202528  12.261282352941176 7.3592  12.261282352941176 7.521877333333333  C 12.261176470588236 7.684341333333333  12.19669411764706 7.840277333333333  12.082341176470589 7.955210666666667  C 11.967776470588236 8.07024  11.812129411764706 8.135413333333334  11.650129411764707 8.135413333333334  C 11.488129411764705 8.135413333333334  11.332482352941177 8.07024  11.217917647058824 7.955210666666667  C 11.103564705882354 7.840277333333333  11.039188235294118 7.684341333333333  11.039082352941177 7.521877333333333  C 11.039082352941177 7.3592  11.103352941176471 7.202528  11.217917647058824 7.087498666666666  Z " stroke-width="0" stroke-dasharray="0" stroke="rgba(255, 255, 255, 0)" fill="none" transform="matrix(1 0 0 1 204 880 )" class="stroke" mask="url(#Clip127)" />
  </g>
</svg>