<?xml version="1.0" encoding="utf-8"?>
<svg version="1.1" xmlns:xlink="http://www.w3.org/1999/xlink" width="16px" height="16px" xmlns="http://www.w3.org/2000/svg">
  <defs>
    <pattern id="BGPattern" patternUnits="userSpaceOnUse" alignment="0 0" imageRepeat="None" />
    <mask fill="white" id="Clip128">
      <path d="M 15.7143 4.65608  C 15.6584 4.30688  15.4347 4.07407  15.0991 4.07407  L 12.5267 4.07407  L 13.4774 3.14286  C 13.8129 2.79365  13.9807 2.32804  13.9807 1.80423  C 13.9807 1.33862  13.8129 0.873016  13.4774 0.52381  C 13.1418 0.174603  12.6945 0  12.2471 0  C 11.7997 0  11.3523 0.174603  11.0168 0.52381  L 9.17133 2.44444  C 8.94764 2.67725  8.94764 3.02645  9.17133 3.25926  C 9.39502 3.49206  9.73055 3.49206  9.95424 3.25926  L 11.7997 1.33862  C 11.9115 1.22222  12.0793 1.16402  12.2471 1.16402  C 12.4148 1.16402  12.5826 1.22222  12.6945 1.33862  C 12.8063 1.51323  12.8622 1.62963  12.8622 1.80423  C 12.8622 1.97884  12.8063 2.15344  12.6945 2.26984  L 10.9609 4.07407  L 8.05287 4.07407  L 4.64159 0.52381  C 4.30605 0.174603  3.85867 0  3.41129 0  C 2.9639 0  2.51652 0.174603  2.18099 0.52381  C 1.84545 0.873016  1.67768 1.33862  1.67768 1.80423  C 1.67768 2.32804  1.84545 2.79365  2.18099 3.14286  L 3.13167 4.07407  L 0.559227 4.07407  C 0.223691 4.07407  0 4.30688  0 4.65608  L 0 7.62434  C 0 7.97355  0.223691 8.20635  0.559227 8.20635  L 0.559227 13.9101  C 0.559227 14.8995  1.28622 15.7143  2.18099 15.7143  L 13.4774 15.7143  C 14.3721 15.7143  15.1551 14.8995  15.1551 13.8519  L 15.1551 8.14815  C 15.4347 8.14815  15.7143 7.85714  15.7143 7.56614  L 15.7143 4.65608  Z M 14.5399 5.2381  L 14.5399 7.04233  L 8.38841 7.04233  L 8.38841 5.2381  L 14.5399 5.2381  Z M 4.69751 4.07407  L 2.9639 2.26984  C 2.85206 2.15344  2.79614 1.97884  2.79614 1.80423  C 2.79614 1.62963  2.85206 1.45503  2.9639 1.33862  C 3.07575 1.22222  3.24352 1.16402  3.41129 1.16402  C 3.57905 1.16402  3.74682 1.22222  3.85867 1.33862  L 6.48704 4.07407  L 4.69751 4.07407  Z M 1.11845 5.2381  L 7.26995 5.2381  L 7.26995 7.04233  L 1.17438 7.04233  L 1.11845 7.04233  L 1.11845 5.2381  Z M 7.26995 14.5503  L 2.18099 14.5503  C 1.90137 14.5503  1.67768 14.2011  1.67768 13.8519  L 1.67768 8.14815  L 7.26995 8.14815  L 7.26995 14.5503  Z M 13.9807 13.9101  C 13.9807 14.2011  13.757 14.5503  13.4774 14.5503  L 8.38841 14.5503  L 8.38841 8.20635  L 13.9807 8.20635  L 13.9807 13.9101  Z " fill-rule="evenodd" />
    </mask>
  </defs>
  <g transform="matrix(1 0 0 1 -279 -880 )">
    <path d="M 15.7143 4.65608  C 15.6584 4.30688  15.4347 4.07407  15.0991 4.07407  L 12.5267 4.07407  L 13.4774 3.14286  C 13.8129 2.79365  13.9807 2.32804  13.9807 1.80423  C 13.9807 1.33862  13.8129 0.873016  13.4774 0.52381  C 13.1418 0.174603  12.6945 0  12.2471 0  C 11.7997 0  11.3523 0.174603  11.0168 0.52381  L 9.17133 2.44444  C 8.94764 2.67725  8.94764 3.02645  9.17133 3.25926  C 9.39502 3.49206  9.73055 3.49206  9.95424 3.25926  L 11.7997 1.33862  C 11.9115 1.22222  12.0793 1.16402  12.2471 1.16402  C 12.4148 1.16402  12.5826 1.22222  12.6945 1.33862  C 12.8063 1.51323  12.8622 1.62963  12.8622 1.80423  C 12.8622 1.97884  12.8063 2.15344  12.6945 2.26984  L 10.9609 4.07407  L 8.05287 4.07407  L 4.64159 0.52381  C 4.30605 0.174603  3.85867 0  3.41129 0  C 2.9639 0  2.51652 0.174603  2.18099 0.52381  C 1.84545 0.873016  1.67768 1.33862  1.67768 1.80423  C 1.67768 2.32804  1.84545 2.79365  2.18099 3.14286  L 3.13167 4.07407  L 0.559227 4.07407  C 0.223691 4.07407  0 4.30688  0 4.65608  L 0 7.62434  C 0 7.97355  0.223691 8.20635  0.559227 8.20635  L 0.559227 13.9101  C 0.559227 14.8995  1.28622 15.7143  2.18099 15.7143  L 13.4774 15.7143  C 14.3721 15.7143  15.1551 14.8995  15.1551 13.8519  L 15.1551 8.14815  C 15.4347 8.14815  15.7143 7.85714  15.7143 7.56614  L 15.7143 4.65608  Z M 14.5399 5.2381  L 14.5399 7.04233  L 8.38841 7.04233  L 8.38841 5.2381  L 14.5399 5.2381  Z M 4.69751 4.07407  L 2.9639 2.26984  C 2.85206 2.15344  2.79614 1.97884  2.79614 1.80423  C 2.79614 1.62963  2.85206 1.45503  2.9639 1.33862  C 3.07575 1.22222  3.24352 1.16402  3.41129 1.16402  C 3.57905 1.16402  3.74682 1.22222  3.85867 1.33862  L 6.48704 4.07407  L 4.69751 4.07407  Z M 1.11845 5.2381  L 7.26995 5.2381  L 7.26995 7.04233  L 1.17438 7.04233  L 1.11845 7.04233  L 1.11845 5.2381  Z M 7.26995 14.5503  L 2.18099 14.5503  C 1.90137 14.5503  1.67768 14.2011  1.67768 13.8519  L 1.67768 8.14815  L 7.26995 8.14815  L 7.26995 14.5503  Z M 13.9807 13.9101  C 13.9807 14.2011  13.757 14.5503  13.4774 14.5503  L 8.38841 14.5503  L 8.38841 8.20635  L 13.9807 8.20635  L 13.9807 13.9101  Z " fill-rule="nonzero" fill="rgba(182, 182, 182, 1)" stroke="none" transform="matrix(1 0 0 1 279 880 )" class="fill" />
    <path d="M 15.7143 4.65608  C 15.6584 4.30688  15.4347 4.07407  15.0991 4.07407  L 12.5267 4.07407  L 13.4774 3.14286  C 13.8129 2.79365  13.9807 2.32804  13.9807 1.80423  C 13.9807 1.33862  13.8129 0.873016  13.4774 0.52381  C 13.1418 0.174603  12.6945 0  12.2471 0  C 11.7997 0  11.3523 0.174603  11.0168 0.52381  L 9.17133 2.44444  C 8.94764 2.67725  8.94764 3.02645  9.17133 3.25926  C 9.39502 3.49206  9.73055 3.49206  9.95424 3.25926  L 11.7997 1.33862  C 11.9115 1.22222  12.0793 1.16402  12.2471 1.16402  C 12.4148 1.16402  12.5826 1.22222  12.6945 1.33862  C 12.8063 1.51323  12.8622 1.62963  12.8622 1.80423  C 12.8622 1.97884  12.8063 2.15344  12.6945 2.26984  L 10.9609 4.07407  L 8.05287 4.07407  L 4.64159 0.52381  C 4.30605 0.174603  3.85867 0  3.41129 0  C 2.9639 0  2.51652 0.174603  2.18099 0.52381  C 1.84545 0.873016  1.67768 1.33862  1.67768 1.80423  C 1.67768 2.32804  1.84545 2.79365  2.18099 3.14286  L 3.13167 4.07407  L 0.559227 4.07407  C 0.223691 4.07407  0 4.30688  0 4.65608  L 0 7.62434  C 0 7.97355  0.223691 8.20635  0.559227 8.20635  L 0.559227 13.9101  C 0.559227 14.8995  1.28622 15.7143  2.18099 15.7143  L 13.4774 15.7143  C 14.3721 15.7143  15.1551 14.8995  15.1551 13.8519  L 15.1551 8.14815  C 15.4347 8.14815  15.7143 7.85714  15.7143 7.56614  L 15.7143 4.65608  Z " stroke-width="0" stroke-dasharray="0" stroke="rgba(255, 255, 255, 0)" fill="none" transform="matrix(1 0 0 1 279 880 )" class="stroke" mask="url(#Clip128)" />
    <path d="M 14.5399 5.2381  L 14.5399 7.04233  L 8.38841 7.04233  L 8.38841 5.2381  L 14.5399 5.2381  Z " stroke-width="0" stroke-dasharray="0" stroke="rgba(255, 255, 255, 0)" fill="none" transform="matrix(1 0 0 1 279 880 )" class="stroke" mask="url(#Clip128)" />
    <path d="M 4.69751 4.07407  L 2.9639 2.26984  C 2.85206 2.15344  2.79614 1.97884  2.79614 1.80423  C 2.79614 1.62963  2.85206 1.45503  2.9639 1.33862  C 3.07575 1.22222  3.24352 1.16402  3.41129 1.16402  C 3.57905 1.16402  3.74682 1.22222  3.85867 1.33862  L 6.48704 4.07407  L 4.69751 4.07407  Z " stroke-width="0" stroke-dasharray="0" stroke="rgba(255, 255, 255, 0)" fill="none" transform="matrix(1 0 0 1 279 880 )" class="stroke" mask="url(#Clip128)" />
    <path d="M 1.11845 5.2381  L 7.26995 5.2381  L 7.26995 7.04233  L 1.17438 7.04233  L 1.11845 7.04233  L 1.11845 5.2381  Z " stroke-width="0" stroke-dasharray="0" stroke="rgba(255, 255, 255, 0)" fill="none" transform="matrix(1 0 0 1 279 880 )" class="stroke" mask="url(#Clip128)" />
    <path d="M 7.26995 14.5503  L 2.18099 14.5503  C 1.90137 14.5503  1.67768 14.2011  1.67768 13.8519  L 1.67768 8.14815  L 7.26995 8.14815  L 7.26995 14.5503  Z " stroke-width="0" stroke-dasharray="0" stroke="rgba(255, 255, 255, 0)" fill="none" transform="matrix(1 0 0 1 279 880 )" class="stroke" mask="url(#Clip128)" />
    <path d="M 13.9807 13.9101  C 13.9807 14.2011  13.757 14.5503  13.4774 14.5503  L 8.38841 14.5503  L 8.38841 8.20635  L 13.9807 8.20635  L 13.9807 13.9101  Z " stroke-width="0" stroke-dasharray="0" stroke="rgba(255, 255, 255, 0)" fill="none" transform="matrix(1 0 0 1 279 880 )" class="stroke" mask="url(#Clip128)" />
  </g>
</svg>