<?xml version="1.0" encoding="utf-8"?>
<svg version="1.1" xmlns:xlink="http://www.w3.org/1999/xlink" width="15px" height="17px" xmlns="http://www.w3.org/2000/svg">
  <defs>
    <pattern id="BGPattern" patternUnits="userSpaceOnUse" alignment="0 0" imageRepeat="None" />
    <mask fill="white" id="Clip101">
      <path d="M 1.9375000000000002 0  L 12.2051 0  C 13.3029 0  14.1425 0.8281530000000005  14 1.9111300000000004  L 14 14.5889  C 14.1425 15.6718  13.3029 16.5  12.2051 16.5  C 12.0763 16.5  12.0117 16.5  11.8828 16.4365  L 7.03906 13.5059  L 2.26074 16.4365  C 2.19618 16.4365  2.06662 16.5  1.9375000000000002 16.5  C 0.839674 16.5  3.3298E-05 15.6718  0 14.5889  L 0 1.9111300000000004  C 3.3126E-05 0.8281530000000005  0.839674 0  1.9375000000000002 0  Z M 12.2051 1.2744100000000005  L 1.9375000000000002 1.2744100000000005  C 1.55005 1.2744100000000005  1.29202 1.5289300000000003  1.29199 1.9111300000000004  L 1.29199 14.5889  C 1.29203 14.9074  1.55029 15.1619  1.80859 15.2256  L 6.71582 12.2314  C 6.78039 12.1678  6.90993 12.168  7.03906 12.168  C 7.16822 12.168  7.23315 12.1677  7.3623 12.2314  L 12.335 15.2256  C 12.6576 15.1618  12.8515 14.9073  12.8516 14.5889  L 12.8516 1.9111300000000004  C 12.8515 1.5289300000000003  12.5925 1.2744100000000005  12.2051 1.2744100000000005  Z M 3.81055 8.85547  L 10.2676 8.85547  C 10.6551 8.85547  10.9141 9.10995  10.9141 9.49219  C 10.9141 9.87442  10.6551 10.1289  10.2676 10.1289  L 3.81055 10.1289  C 3.42307 10.1289  3.16407 9.87442  3.16406 9.49219  C 3.16406 9.10995  3.42307 8.85547  3.81055 8.85547  Z M 3.81055 6.30664  L 10.2676 6.30664  C 10.6551 6.30664  10.9141 6.562100000000001  10.9141 6.94434  C 10.9139 7.32635  10.6549 7.581050000000001  10.2676 7.581050000000001  L 3.81055 7.581050000000001  C 3.42321 7.581050000000001  3.16425 7.32635  3.16406 6.94434  C 3.16406 6.562100000000001  3.42307 6.30664  3.81055 6.30664  Z M 3.81055 3.7587900000000003  L 10.2676 3.7587900000000003  C 10.655 3.7587900000000003  10.914 4.0133600000000005  10.9141 4.39551  C 10.9141 4.777750000000001  10.6551 5.033200000000001  10.2676 5.033200000000001  L 3.81055 5.033200000000001  C 3.42307 5.033200000000001  3.16406 4.777750000000001  3.16406 4.39551  C 3.16414 4.0133600000000005  3.42313 3.7587900000000003  3.81055 3.7587900000000003  Z " fill-rule="evenodd" />
    </mask>
  </defs>
  <g transform="matrix(1 0 0 1 -354 -880 )">
    <path d="M 1.9375000000000002 0  L 12.2051 0  C 13.3029 0  14.1425 0.8281530000000005  14 1.9111300000000004  L 14 14.5889  C 14.1425 15.6718  13.3029 16.5  12.2051 16.5  C 12.0763 16.5  12.0117 16.5  11.8828 16.4365  L 7.03906 13.5059  L 2.26074 16.4365  C 2.19618 16.4365  2.06662 16.5  1.9375000000000002 16.5  C 0.839674 16.5  3.3298E-05 15.6718  0 14.5889  L 0 1.9111300000000004  C 3.3126E-05 0.8281530000000005  0.839674 0  1.9375000000000002 0  Z M 12.2051 1.2744100000000005  L 1.9375000000000002 1.2744100000000005  C 1.55005 1.2744100000000005  1.29202 1.5289300000000003  1.29199 1.9111300000000004  L 1.29199 14.5889  C 1.29203 14.9074  1.55029 15.1619  1.80859 15.2256  L 6.71582 12.2314  C 6.78039 12.1678  6.90993 12.168  7.03906 12.168  C 7.16822 12.168  7.23315 12.1677  7.3623 12.2314  L 12.335 15.2256  C 12.6576 15.1618  12.8515 14.9073  12.8516 14.5889  L 12.8516 1.9111300000000004  C 12.8515 1.5289300000000003  12.5925 1.2744100000000005  12.2051 1.2744100000000005  Z M 3.81055 8.85547  L 10.2676 8.85547  C 10.6551 8.85547  10.9141 9.10995  10.9141 9.49219  C 10.9141 9.87442  10.6551 10.1289  10.2676 10.1289  L 3.81055 10.1289  C 3.42307 10.1289  3.16407 9.87442  3.16406 9.49219  C 3.16406 9.10995  3.42307 8.85547  3.81055 8.85547  Z M 3.81055 6.30664  L 10.2676 6.30664  C 10.6551 6.30664  10.9141 6.562100000000001  10.9141 6.94434  C 10.9139 7.32635  10.6549 7.581050000000001  10.2676 7.581050000000001  L 3.81055 7.581050000000001  C 3.42321 7.581050000000001  3.16425 7.32635  3.16406 6.94434  C 3.16406 6.562100000000001  3.42307 6.30664  3.81055 6.30664  Z M 3.81055 3.7587900000000003  L 10.2676 3.7587900000000003  C 10.655 3.7587900000000003  10.914 4.0133600000000005  10.9141 4.39551  C 10.9141 4.777750000000001  10.6551 5.033200000000001  10.2676 5.033200000000001  L 3.81055 5.033200000000001  C 3.42307 5.033200000000001  3.16406 4.777750000000001  3.16406 4.39551  C 3.16414 4.0133600000000005  3.42313 3.7587900000000003  3.81055 3.7587900000000003  Z " fill-rule="nonzero" fill="rgba(182, 182, 182, 1)" stroke="none" transform="matrix(1 0 0 1 354 880 )" class="fill" />
    <path d="M 1.9375000000000002 0  L 12.2051 0  C 13.3029 0  14.1425 0.8281530000000005  14 1.9111300000000004  L 14 14.5889  C 14.1425 15.6718  13.3029 16.5  12.2051 16.5  C 12.0763 16.5  12.0117 16.5  11.8828 16.4365  L 7.03906 13.5059  L 2.26074 16.4365  C 2.19618 16.4365  2.06662 16.5  1.9375000000000002 16.5  C 0.839674 16.5  3.3298E-05 15.6718  0 14.5889  L 0 1.9111300000000004  C 3.3126E-05 0.8281530000000005  0.839674 0  1.9375000000000002 0  Z " stroke-width="0" stroke-dasharray="0" stroke="rgba(255, 255, 255, 0)" fill="none" transform="matrix(1 0 0 1 354 880 )" class="stroke" mask="url(#Clip101)" />
    <path d="M 12.2051 1.2744100000000005  L 1.9375000000000002 1.2744100000000005  C 1.55005 1.2744100000000005  1.29202 1.5289300000000003  1.29199 1.9111300000000004  L 1.29199 14.5889  C 1.29203 14.9074  1.55029 15.1619  1.80859 15.2256  L 6.71582 12.2314  C 6.78039 12.1678  6.90993 12.168  7.03906 12.168  C 7.16822 12.168  7.23315 12.1677  7.3623 12.2314  L 12.335 15.2256  C 12.6576 15.1618  12.8515 14.9073  12.8516 14.5889  L 12.8516 1.9111300000000004  C 12.8515 1.5289300000000003  12.5925 1.2744100000000005  12.2051 1.2744100000000005  Z " stroke-width="0" stroke-dasharray="0" stroke="rgba(255, 255, 255, 0)" fill="none" transform="matrix(1 0 0 1 354 880 )" class="stroke" mask="url(#Clip101)" />
    <path d="M 3.81055 8.85547  L 10.2676 8.85547  C 10.6551 8.85547  10.9141 9.10995  10.9141 9.49219  C 10.9141 9.87442  10.6551 10.1289  10.2676 10.1289  L 3.81055 10.1289  C 3.42307 10.1289  3.16407 9.87442  3.16406 9.49219  C 3.16406 9.10995  3.42307 8.85547  3.81055 8.85547  Z " stroke-width="0" stroke-dasharray="0" stroke="rgba(255, 255, 255, 0)" fill="none" transform="matrix(1 0 0 1 354 880 )" class="stroke" mask="url(#Clip101)" />
    <path d="M 3.81055 6.30664  L 10.2676 6.30664  C 10.6551 6.30664  10.9141 6.562100000000001  10.9141 6.94434  C 10.9139 7.32635  10.6549 7.581050000000001  10.2676 7.581050000000001  L 3.81055 7.581050000000001  C 3.42321 7.581050000000001  3.16425 7.32635  3.16406 6.94434  C 3.16406 6.562100000000001  3.42307 6.30664  3.81055 6.30664  Z " stroke-width="0" stroke-dasharray="0" stroke="rgba(255, 255, 255, 0)" fill="none" transform="matrix(1 0 0 1 354 880 )" class="stroke" mask="url(#Clip101)" />
    <path d="M 3.81055 3.7587900000000003  L 10.2676 3.7587900000000003  C 10.655 3.7587900000000003  10.914 4.0133600000000005  10.9141 4.39551  C 10.9141 4.777750000000001  10.6551 5.033200000000001  10.2676 5.033200000000001  L 3.81055 5.033200000000001  C 3.42307 5.033200000000001  3.16406 4.777750000000001  3.16406 4.39551  C 3.16414 4.0133600000000005  3.42313 3.7587900000000003  3.81055 3.7587900000000003  Z " stroke-width="0" stroke-dasharray="0" stroke="rgba(255, 255, 255, 0)" fill="none" transform="matrix(1 0 0 1 354 880 )" class="stroke" mask="url(#Clip101)" />
  </g>
</svg>