<?xml version="1.0" encoding="utf-8"?>
<svg version="1.1" xmlns:xlink="http://www.w3.org/1999/xlink" width="16px" height="18px" xmlns="http://www.w3.org/2000/svg">
  <defs>
    <pattern id="BGPattern" patternUnits="userSpaceOnUse" alignment="0 0" imageRepeat="None" />
    <mask fill="white" id="Clip102">
      <path d="M 1.924590013203379 5.76172  C 1.9247000132032759 2.56075  4.561690010729658 0  7.85819000763739 0  C 11.154600004545205 4.9159E-05  13.791700002071485 2.5607799999999994  13.791800002071392 5.76172  C 13.791800002071392 8.96278  11.154200004545581 11.5234  7.923620007576013 11.5234  L 7.791780007699686 11.5234  C 4.627280010668132 11.5876  1.9242400132037072 13.764599999999998  1.3308400137603438 16.7734  C 1.2649200138221797 17.0935  1.0012900140694767 17.2861  0.6716640143786811 17.2861  L 0.5398280145023492 17.2861  C 0.14427101487339988 17.2221  -0.05340158494117416 16.8377  0.012484214997021936 16.5176  C 0.5399080145022743 13.8288  2.45161001270901 11.7162  4.956820010359008 10.7559  C 3.11081001209065 9.79552  1.924590013203379 7.93839  1.924590013203379 5.76172  Z M 11.484200004236024 12.6758  C 11.154800004545018 12.4837  11.089200004606553 12.1003  11.286900004421101 11.7803  C 11.484700004235556 11.4602  11.880100003864653 11.3958  12.209700003555474 11.5879  C 14.05570000182384 12.804299999999998  15.308300000648844 14.533  15.703900000277754 16.5176  C 15.769800000215936 16.9017  15.506200000463204 17.2221  15.17650000077248 17.2861  L 15.044700000896114 17.2861  C 14.715100001205293 17.2861  14.451500001452562 17.0935  14.385500001514474 16.7734  C 14.055900001823652 15.1089  13.000600002813574 13.700099999999999  11.484200004236024 12.6758  Z M 12.473400003308111 5.76172  C 12.473300003308205 3.26501  10.429400005225476 1.28032  7.85819000763739 1.28027  C 5.286940010049341 1.28027  3.2430500119666035 3.26498  3.2429500119666965 5.76172  C 3.2429500119666965 8.19452  5.220970010111224 10.1791  7.726350007761062 10.243199999999998  L 7.923620007576013 10.243199999999998  C 10.429000005225852 10.1791  12.473400003308111 8.19452  12.473400003308111 5.76172  Z M 9.776160005838246 6.18848  C 9.776290005838122 5.80287  10.098700005535687 5.49023  10.495900005163097 5.49023  C 10.892900004790691 5.49041  11.214500004489016 5.80297  11.214600004488924 6.18848  C 11.214600004488924 7.98852  9.711930005898497 9.44824  7.85819000763739 9.44824  C 6.004500009376237 9.44818  4.501740010785894 7.98848  4.501740010785894 6.18848  C 4.501880010785763 5.80287  4.8243200104833 5.49023  5.221470010110755 5.49023  C 5.618430009738388 5.49045  5.940080009436666 5.803  5.940220009436534 6.18848  C 5.940220009436534 7.21703  6.7989600086309965 8.05072  7.85819000763739 8.05078  C 8.917470006643736 8.05078  9.776160005838246 7.21707  9.776160005838246 6.18848  Z " fill-rule="evenodd" />
    </mask>
  </defs>
  <g transform="matrix(1 0 0 1 -427 -879 )">
    <path d="M 1.924590013203379 5.76172  C 1.9247000132032759 2.56075  4.561690010729658 0  7.85819000763739 0  C 11.154600004545205 4.9159E-05  13.791700002071485 2.5607799999999994  13.791800002071392 5.76172  C 13.791800002071392 8.96278  11.154200004545581 11.5234  7.923620007576013 11.5234  L 7.791780007699686 11.5234  C 4.627280010668132 11.5876  1.9242400132037072 13.764599999999998  1.3308400137603438 16.7734  C 1.2649200138221797 17.0935  1.0012900140694767 17.2861  0.6716640143786811 17.2861  L 0.5398280145023492 17.2861  C 0.14427101487339988 17.2221  -0.05340158494117416 16.8377  0.012484214997021936 16.5176  C 0.5399080145022743 13.8288  2.45161001270901 11.7162  4.956820010359008 10.7559  C 3.11081001209065 9.79552  1.924590013203379 7.93839  1.924590013203379 5.76172  Z M 11.484200004236024 12.6758  C 11.154800004545018 12.4837  11.089200004606553 12.1003  11.286900004421101 11.7803  C 11.484700004235556 11.4602  11.880100003864653 11.3958  12.209700003555474 11.5879  C 14.05570000182384 12.804299999999998  15.308300000648844 14.533  15.703900000277754 16.5176  C 15.769800000215936 16.9017  15.506200000463204 17.2221  15.17650000077248 17.2861  L 15.044700000896114 17.2861  C 14.715100001205293 17.2861  14.451500001452562 17.0935  14.385500001514474 16.7734  C 14.055900001823652 15.1089  13.000600002813574 13.700099999999999  11.484200004236024 12.6758  Z M 12.473400003308111 5.76172  C 12.473300003308205 3.26501  10.429400005225476 1.28032  7.85819000763739 1.28027  C 5.286940010049341 1.28027  3.2430500119666035 3.26498  3.2429500119666965 5.76172  C 3.2429500119666965 8.19452  5.220970010111224 10.1791  7.726350007761062 10.243199999999998  L 7.923620007576013 10.243199999999998  C 10.429000005225852 10.1791  12.473400003308111 8.19452  12.473400003308111 5.76172  Z M 9.776160005838246 6.18848  C 9.776290005838122 5.80287  10.098700005535687 5.49023  10.495900005163097 5.49023  C 10.892900004790691 5.49041  11.214500004489016 5.80297  11.214600004488924 6.18848  C 11.214600004488924 7.98852  9.711930005898497 9.44824  7.85819000763739 9.44824  C 6.004500009376237 9.44818  4.501740010785894 7.98848  4.501740010785894 6.18848  C 4.501880010785763 5.80287  4.8243200104833 5.49023  5.221470010110755 5.49023  C 5.618430009738388 5.49045  5.940080009436666 5.803  5.940220009436534 6.18848  C 5.940220009436534 7.21703  6.7989600086309965 8.05072  7.85819000763739 8.05078  C 8.917470006643736 8.05078  9.776160005838246 7.21707  9.776160005838246 6.18848  Z " fill-rule="nonzero" fill="rgba(182, 182, 182, 1)" stroke="none" transform="matrix(1 0 0 1 427 879 )" class="fill" />
    <path d="M 1.924590013203379 5.76172  C 1.9247000132032759 2.56075  4.561690010729658 0  7.85819000763739 0  C 11.154600004545205 4.9159E-05  13.791700002071485 2.5607799999999994  13.791800002071392 5.76172  C 13.791800002071392 8.96278  11.154200004545581 11.5234  7.923620007576013 11.5234  L 7.791780007699686 11.5234  C 4.627280010668132 11.5876  1.9242400132037072 13.764599999999998  1.3308400137603438 16.7734  C 1.2649200138221797 17.0935  1.0012900140694767 17.2861  0.6716640143786811 17.2861  L 0.5398280145023492 17.2861  C 0.14427101487339988 17.2221  -0.05340158494117416 16.8377  0.012484214997021936 16.5176  C 0.5399080145022743 13.8288  2.45161001270901 11.7162  4.956820010359008 10.7559  C 3.11081001209065 9.79552  1.924590013203379 7.93839  1.924590013203379 5.76172  Z " stroke-width="0" stroke-dasharray="0" stroke="rgba(255, 255, 255, 0)" fill="none" transform="matrix(1 0 0 1 427 879 )" class="stroke" mask="url(#Clip102)" />
    <path d="M 11.484200004236024 12.6758  C 11.154800004545018 12.4837  11.089200004606553 12.1003  11.286900004421101 11.7803  C 11.484700004235556 11.4602  11.880100003864653 11.3958  12.209700003555474 11.5879  C 14.05570000182384 12.804299999999998  15.308300000648844 14.533  15.703900000277754 16.5176  C 15.769800000215936 16.9017  15.506200000463204 17.2221  15.17650000077248 17.2861  L 15.044700000896114 17.2861  C 14.715100001205293 17.2861  14.451500001452562 17.0935  14.385500001514474 16.7734  C 14.055900001823652 15.1089  13.000600002813574 13.700099999999999  11.484200004236024 12.6758  Z " stroke-width="0" stroke-dasharray="0" stroke="rgba(255, 255, 255, 0)" fill="none" transform="matrix(1 0 0 1 427 879 )" class="stroke" mask="url(#Clip102)" />
    <path d="M 12.473400003308111 5.76172  C 12.473300003308205 3.26501  10.429400005225476 1.28032  7.85819000763739 1.28027  C 5.286940010049341 1.28027  3.2430500119666035 3.26498  3.2429500119666965 5.76172  C 3.2429500119666965 8.19452  5.220970010111224 10.1791  7.726350007761062 10.243199999999998  L 7.923620007576013 10.243199999999998  C 10.429000005225852 10.1791  12.473400003308111 8.19452  12.473400003308111 5.76172  Z " stroke-width="0" stroke-dasharray="0" stroke="rgba(255, 255, 255, 0)" fill="none" transform="matrix(1 0 0 1 427 879 )" class="stroke" mask="url(#Clip102)" />
    <path d="M 9.776160005838246 6.18848  C 9.776290005838122 5.80287  10.098700005535687 5.49023  10.495900005163097 5.49023  C 10.892900004790691 5.49041  11.214500004489016 5.80297  11.214600004488924 6.18848  C 11.214600004488924 7.98852  9.711930005898497 9.44824  7.85819000763739 9.44824  C 6.004500009376237 9.44818  4.501740010785894 7.98848  4.501740010785894 6.18848  C 4.501880010785763 5.80287  4.8243200104833 5.49023  5.221470010110755 5.49023  C 5.618430009738388 5.49045  5.940080009436666 5.803  5.940220009436534 6.18848  C 5.940220009436534 7.21703  6.7989600086309965 8.05072  7.85819000763739 8.05078  C 8.917470006643736 8.05078  9.776160005838246 7.21707  9.776160005838246 6.18848  Z " stroke-width="0" stroke-dasharray="0" stroke="rgba(255, 255, 255, 0)" fill="none" transform="matrix(1 0 0 1 427 879 )" class="stroke" mask="url(#Clip102)" />
  </g>
</svg>