<?xml version="1.0" encoding="utf-8"?>
<svg version="1.1" xmlns:xlink="http://www.w3.org/1999/xlink" width="3px" height="107px" xmlns="http://www.w3.org/2000/svg">
  <defs>
    <pattern id="BGPattern" patternUnits="userSpaceOnUse" alignment="0 0" imageRepeat="None" />
    <mask fill="white" id="Clip116">
      <path d="M 3 105.40298507462686  L 3 1.5970149253731343  C 3 0.702686567164179  2.56 0  2 0  L 0 0  L 0 107  L 2 107  C 2.56 107  3 106.29731343283582  3 105.40298507462686  Z " fill-rule="evenodd" />
    </mask>
  </defs>
  <g transform="matrix(1 0 0 1 -504 -346 )">
    <path d="M 3 105.40298507462686  L 3 1.5970149253731343  C 3 0.702686567164179  2.56 0  2 0  L 0 0  L 0 107  L 2 107  C 2.56 107  3 106.29731343283582  3 105.40298507462686  Z " fill-rule="nonzero" fill="rgba(102, 102, 102, 1)" stroke="none" transform="matrix(1 0 0 1 504 346 )" class="fill" />
    <path d="M 3 105.40298507462686  L 3 1.5970149253731343  C 3 0.702686567164179  2.56 0  2 0  L 0 0  L 0 107  L 2 107  C 2.56 107  3 106.29731343283582  3 105.40298507462686  Z " stroke-width="0" stroke-dasharray="0" stroke="rgba(102, 102, 102, 1)" fill="none" transform="matrix(1 0 0 1 504 346 )" class="stroke" mask="url(#Clip116)" />
  </g>
</svg>