<?xml version="1.0" encoding="utf-8"?>
<svg version="1.1" xmlns:xlink="http://www.w3.org/1999/xlink" width="19px" height="14px" xmlns="http://www.w3.org/2000/svg">
  <defs>
    <pattern id="BGPattern" patternUnits="userSpaceOnUse" alignment="0 0" imageRepeat="None" />
    <mask fill="white" id="Clip119">
      <path d="M 10.066984351713794 13.891840365353717  C 9.97108202794334 13.891840365353717  9.879767759570205 13.850243885824833  9.816119225037193 13.777563524590143  L 7.553675111773471 11.29927663934424  C 7.407023052020598 11.13959812858971  7.411732798639915 10.890872381547995  7.564321907600515 10.737010245901615  C 8.976087057680372 9.410973148496646  11.15788164574731 9.410973148496646  12.569646795827069 10.737010245901615  C 12.72223590478767 10.890872381547995  12.726945651407087 11.13959812858971  12.580293591654211 11.29927663934424  L 10.317849478390391 13.777563524590143  C 10.25420094385738 13.850243885824833  10.162886675484344 13.891840365353717  10.066984351713794 13.891840365353717  Z M 14.03890461997016 9.542362704918018  C 13.946791259260522 9.544783270953596  13.857752568972753 9.508699170152754  13.792697466467885 9.442584016393427  C 11.73068816104237 7.367258426435548  8.401949692906824 7.367258426435548  6.339940387481306 9.442584016393427  C 6.277091679197693 9.509964134721592  6.189627248813307 9.548145418285559  6.098123795024145 9.548145418285559  C 6.003474157680185 9.548145418285559  5.913304436052448 9.507302829426356  5.850187779433642 9.43584221311474  L 4.539301043219 7.99579303278686  C 4.394214675447958 7.836674661805118  4.394214675447958 7.59129664967025  4.539301043219 7.432178278688507  C 5.991828612362708 5.924890765900596  7.983113937178442 5.075043524720533  10.062326378539467 5.075043524720533  C 12.141538819900493 5.075043524720533  14.132824144716224 5.924890765900596  15.585351713859836 7.432178278688507  C 15.73043808163088 7.591296649670237  15.73043808163088 7.83667466180513  15.585351713859836 7.99579303278686  L 14.289104321907516 9.430448770491779  C 14.22479233286146 9.501520203730916  14.134071664159283 9.54209941661414  14.03890461997016 9.542362704918018  Z M 3.0780283159462662 6.240227459016378  C 2.98424683822061 6.240175078514335  2.894842310801426 6.200025705390242  2.83182116244409 6.129661885245879  L 1.5209344262294475 4.69500614754096  C 1.378108358703545 4.536031732673882  1.378108358703545 4.2930625296211655  1.5209344262294475 4.134088114754075  C 3.7421881180970438 1.7560294062773405  6.831398134171785 0.40878414252443296  10.062991803278615 0.40878414252443296  C 13.294585472385444 0.40878414252443296  16.383795488460283 1.7560294062773405  18.605049180327782 4.134088114754075  C 18.747253414961435 4.293305795305601  18.747253414961435 4.535788466989434  18.605049180327782 4.69500614754096  L 17.29549329359163 6.129661885245879  C 17.232462539424173 6.199502888051509  17.143358037450717 6.239283366777881  17.0499515648286 6.239283366777881  C 16.956545092206387 6.239283366777881  16.867440590233027 6.199502888051509  16.804409836065574 6.129661885245879  C 15.03765351607064 4.277364978643011  12.608692028684377 3.2245591354533856  10.066318926974645 3.209112704918012  C 7.521705208311557 3.2238175212758184  5.090502524759953 4.277735159609987  3.322904619970147 6.132358606557359  C 3.2593486499097253 6.200838200532646  3.170805780988349 6.239841638215411  3.0780283159462662 6.240227459016378  Z " fill-rule="evenodd" />
    </mask>
  </defs>
  <g transform="matrix(1 0 0 1 -399 -105 )">
    <path d="M 10.066984351713794 13.891840365353717  C 9.97108202794334 13.891840365353717  9.879767759570205 13.850243885824833  9.816119225037193 13.777563524590143  L 7.553675111773471 11.29927663934424  C 7.407023052020598 11.13959812858971  7.411732798639915 10.890872381547995  7.564321907600515 10.737010245901615  C 8.976087057680372 9.410973148496646  11.15788164574731 9.410973148496646  12.569646795827069 10.737010245901615  C 12.72223590478767 10.890872381547995  12.726945651407087 11.13959812858971  12.580293591654211 11.29927663934424  L 10.317849478390391 13.777563524590143  C 10.25420094385738 13.850243885824833  10.162886675484344 13.891840365353717  10.066984351713794 13.891840365353717  Z M 14.03890461997016 9.542362704918018  C 13.946791259260522 9.544783270953596  13.857752568972753 9.508699170152754  13.792697466467885 9.442584016393427  C 11.73068816104237 7.367258426435548  8.401949692906824 7.367258426435548  6.339940387481306 9.442584016393427  C 6.277091679197693 9.509964134721592  6.189627248813307 9.548145418285559  6.098123795024145 9.548145418285559  C 6.003474157680185 9.548145418285559  5.913304436052448 9.507302829426356  5.850187779433642 9.43584221311474  L 4.539301043219 7.99579303278686  C 4.394214675447958 7.836674661805118  4.394214675447958 7.59129664967025  4.539301043219 7.432178278688507  C 5.991828612362708 5.924890765900596  7.983113937178442 5.075043524720533  10.062326378539467 5.075043524720533  C 12.141538819900493 5.075043524720533  14.132824144716224 5.924890765900596  15.585351713859836 7.432178278688507  C 15.73043808163088 7.591296649670237  15.73043808163088 7.83667466180513  15.585351713859836 7.99579303278686  L 14.289104321907516 9.430448770491779  C 14.22479233286146 9.501520203730916  14.134071664159283 9.54209941661414  14.03890461997016 9.542362704918018  Z M 3.0780283159462662 6.240227459016378  C 2.98424683822061 6.240175078514335  2.894842310801426 6.200025705390242  2.83182116244409 6.129661885245879  L 1.5209344262294475 4.69500614754096  C 1.378108358703545 4.536031732673882  1.378108358703545 4.2930625296211655  1.5209344262294475 4.134088114754075  C 3.7421881180970438 1.7560294062773405  6.831398134171785 0.40878414252443296  10.062991803278615 0.40878414252443296  C 13.294585472385444 0.40878414252443296  16.383795488460283 1.7560294062773405  18.605049180327782 4.134088114754075  C 18.747253414961435 4.293305795305601  18.747253414961435 4.535788466989434  18.605049180327782 4.69500614754096  L 17.29549329359163 6.129661885245879  C 17.232462539424173 6.199502888051509  17.143358037450717 6.239283366777881  17.0499515648286 6.239283366777881  C 16.956545092206387 6.239283366777881  16.867440590233027 6.199502888051509  16.804409836065574 6.129661885245879  C 15.03765351607064 4.277364978643011  12.608692028684377 3.2245591354533856  10.066318926974645 3.209112704918012  C 7.521705208311557 3.2238175212758184  5.090502524759953 4.277735159609987  3.322904619970147 6.132358606557359  C 3.2593486499097253 6.200838200532646  3.170805780988349 6.239841638215411  3.0780283159462662 6.240227459016378  Z " fill-rule="nonzero" fill="rgba(0, 0, 0, 1)" stroke="none" transform="matrix(1 0 0 1 399 105 )" class="fill" />
    <path d="M 10.066984351713794 13.891840365353717  C 9.97108202794334 13.891840365353717  9.879767759570205 13.850243885824833  9.816119225037193 13.777563524590143  L 7.553675111773471 11.29927663934424  C 7.407023052020598 11.13959812858971  7.411732798639915 10.890872381547995  7.564321907600515 10.737010245901615  C 8.976087057680372 9.410973148496646  11.15788164574731 9.410973148496646  12.569646795827069 10.737010245901615  C 12.72223590478767 10.890872381547995  12.726945651407087 11.13959812858971  12.580293591654211 11.29927663934424  L 10.317849478390391 13.777563524590143  C 10.25420094385738 13.850243885824833  10.162886675484344 13.891840365353717  10.066984351713794 13.891840365353717  Z " stroke-width="0" stroke-dasharray="0" stroke="rgba(255, 255, 255, 0)" fill="none" transform="matrix(1 0 0 1 399 105 )" class="stroke" mask="url(#Clip119)" />
    <path d="M 14.03890461997016 9.542362704918018  C 13.946791259260522 9.544783270953596  13.857752568972753 9.508699170152754  13.792697466467885 9.442584016393427  C 11.73068816104237 7.367258426435548  8.401949692906824 7.367258426435548  6.339940387481306 9.442584016393427  C 6.277091679197693 9.509964134721592  6.189627248813307 9.548145418285559  6.098123795024145 9.548145418285559  C 6.003474157680185 9.548145418285559  5.913304436052448 9.507302829426356  5.850187779433642 9.43584221311474  L 4.539301043219 7.99579303278686  C 4.394214675447958 7.836674661805118  4.394214675447958 7.59129664967025  4.539301043219 7.432178278688507  C 5.991828612362708 5.924890765900596  7.983113937178442 5.075043524720533  10.062326378539467 5.075043524720533  C 12.141538819900493 5.075043524720533  14.132824144716224 5.924890765900596  15.585351713859836 7.432178278688507  C 15.73043808163088 7.591296649670237  15.73043808163088 7.83667466180513  15.585351713859836 7.99579303278686  L 14.289104321907516 9.430448770491779  C 14.22479233286146 9.501520203730916  14.134071664159283 9.54209941661414  14.03890461997016 9.542362704918018  Z " stroke-width="0" stroke-dasharray="0" stroke="rgba(255, 255, 255, 0)" fill="none" transform="matrix(1 0 0 1 399 105 )" class="stroke" mask="url(#Clip119)" />
    <path d="M 3.0780283159462662 6.240227459016378  C 2.98424683822061 6.240175078514335  2.894842310801426 6.200025705390242  2.83182116244409 6.129661885245879  L 1.5209344262294475 4.69500614754096  C 1.378108358703545 4.536031732673882  1.378108358703545 4.2930625296211655  1.5209344262294475 4.134088114754075  C 3.7421881180970438 1.7560294062773405  6.831398134171785 0.40878414252443296  10.062991803278615 0.40878414252443296  C 13.294585472385444 0.40878414252443296  16.383795488460283 1.7560294062773405  18.605049180327782 4.134088114754075  C 18.747253414961435 4.293305795305601  18.747253414961435 4.535788466989434  18.605049180327782 4.69500614754096  L 17.29549329359163 6.129661885245879  C 17.232462539424173 6.199502888051509  17.143358037450717 6.239283366777881  17.0499515648286 6.239283366777881  C 16.956545092206387 6.239283366777881  16.867440590233027 6.199502888051509  16.804409836065574 6.129661885245879  C 15.03765351607064 4.277364978643011  12.608692028684377 3.2245591354533856  10.066318926974645 3.209112704918012  C 7.521705208311557 3.2238175212758184  5.090502524759953 4.277735159609987  3.322904619970147 6.132358606557359  C 3.2593486499097253 6.200838200532646  3.170805780988349 6.239841638215411  3.0780283159462662 6.240227459016378  Z " stroke-width="0" stroke-dasharray="0" stroke="rgba(255, 255, 255, 0)" fill="none" transform="matrix(1 0 0 1 399 105 )" class="stroke" mask="url(#Clip119)" />
  </g>
</svg>