<?xml version="1.0" encoding="utf-8"?>
<svg version="1.1" xmlns:xlink="http://www.w3.org/1999/xlink" width="197px" height="112px" xmlns="http://www.w3.org/2000/svg">
  <g transform="matrix(1 0 0 1 -783 -292 )">
    <path d="M 783 292  L 980 292  L 980 404  L 783 404  L 783 292  " fill-rule="nonzero" fill="rgba(204, 204, 204, 1)" stroke="none" class="fill" />
    <path d="M 791 300  L 972 300  L 972 396  L 791 396  L 791 300  " fill-rule="nonzero" fill="rgba(255, 255, 255, 1)" stroke="none" class="fill" />
    <path d="M 893.84 325.6  C 889.1360000000001 325.6  885.44 321.90400000000005  885.44 317.20000000000005  C 885.44 312.49600000000004  889.1360000000001 308.8  893.84 308.8  C 898.544 308.8  902.24 312.49600000000004  902.24 317.20000000000005  C 902.24 321.90400000000005  898.544 325.6  893.84 325.6  " fill-rule="nonzero" fill="rgba(204, 204, 204, 1)" stroke="none" class="fill" />
    <path d="M 794 393  L 794 343.5  L 837.75 321  L 899 362.2994923857868  L 934 334.5  L 969 362.2994923857868  L 969 393  L 794 393  " fill-rule="nonzero" fill="rgba(22, 155, 213, 1)" stroke="none" class="fill" />
  </g>
</svg>