<?xml version="1.0" encoding="utf-8"?>
<svg version="1.1" xmlns:xlink="http://www.w3.org/1999/xlink" width="15px" height="7px" xmlns="http://www.w3.org/2000/svg">
  <defs>
    <pattern id="BGPattern" patternUnits="userSpaceOnUse" alignment="0 0" imageRepeat="None" />
    <mask fill="white" id="Clip110">
      <path d="M 0.7337445122406403 1.5212075299212127  L 14.22344385728486 1.5212075299212127  C 14.61555728931335 1.5212075299212127  14.933428031478739 1.1968163622755073  14.933428031478739 0.7966595777951526  C 14.933428031478739 0.3965027933147978  14.61555728931335 0.07211162566909261  14.22344385728486 0.07211162566909261  C 14.22344385728486 0.07211162566909261  14.22344385728486 0.07211162566909261  14.22344385728486 0  L 0.7337445122406399 0  C 0.7337445122406399 0.07211162566909261  0.7337445122406399 0.07211162566909261  0.7337445122406399 0.07211162566909261  C 0.3416310802121515 0.07211162566909261  0.023760338046761902 0.3965027933147978  0.023760338046761902 0.7966595777951526  C 0.023760338046761902 1.1968163622755073  0.3416310802121515 1.5212075299212127  0.7337445122406399 1.5212075299212127  Z M 14.22344385728486 5.506221278643171  L 4.283665394996876 5.506221278643172  C 3.8915519629683875 5.506221278643172  3.573681220802998 5.830612446288876  3.573681220802998 6.23076923076923  C 3.573681220802998 6.630926015249585  3.8915519629683875 6.955317182895292  4.283665394996876 6.955317182895292  L 14.22344385728486 6.955317182895292  C 14.61555728931335 6.955317182895292  14.933428031478739 6.630926015249585  14.933428031478739 6.23076923076923  C 14.933428031478739 5.830612446288876  14.61555728931335 5.506221278643172  14.22344385728486 5.506221278643172  Z " fill-rule="evenodd" />
    </mask>
  </defs>
  <g transform="matrix(1 0 0 1 -211 -53 )">
    <path d="M 0.7337445122406403 1.5212075299212127  L 14.22344385728486 1.5212075299212127  C 14.61555728931335 1.5212075299212127  14.933428031478739 1.1968163622755073  14.933428031478739 0.7966595777951526  C 14.933428031478739 0.3965027933147978  14.61555728931335 0.07211162566909261  14.22344385728486 0.07211162566909261  C 14.22344385728486 0.07211162566909261  14.22344385728486 0.07211162566909261  14.22344385728486 0  L 0.7337445122406399 0  C 0.7337445122406399 0.07211162566909261  0.7337445122406399 0.07211162566909261  0.7337445122406399 0.07211162566909261  C 0.3416310802121515 0.07211162566909261  0.023760338046761902 0.3965027933147978  0.023760338046761902 0.7966595777951526  C 0.023760338046761902 1.1968163622755073  0.3416310802121515 1.5212075299212127  0.7337445122406399 1.5212075299212127  Z M 14.22344385728486 5.506221278643171  L 4.283665394996876 5.506221278643172  C 3.8915519629683875 5.506221278643172  3.573681220802998 5.830612446288876  3.573681220802998 6.23076923076923  C 3.573681220802998 6.630926015249585  3.8915519629683875 6.955317182895292  4.283665394996876 6.955317182895292  L 14.22344385728486 6.955317182895292  C 14.61555728931335 6.955317182895292  14.933428031478739 6.630926015249585  14.933428031478739 6.23076923076923  C 14.933428031478739 5.830612446288876  14.61555728931335 5.506221278643172  14.22344385728486 5.506221278643172  Z " fill-rule="nonzero" fill="rgba(158, 158, 158, 1)" stroke="none" transform="matrix(1 0 0 1 211 53 )" class="fill" />
    <path d="M 0.7337445122406403 1.5212075299212127  L 14.22344385728486 1.5212075299212127  C 14.61555728931335 1.5212075299212127  14.933428031478739 1.1968163622755073  14.933428031478739 0.7966595777951526  C 14.933428031478739 0.3965027933147978  14.61555728931335 0.07211162566909261  14.22344385728486 0.07211162566909261  C 14.22344385728486 0.07211162566909261  14.22344385728486 0.07211162566909261  14.22344385728486 0  L 0.7337445122406399 0  C 0.7337445122406399 0.07211162566909261  0.7337445122406399 0.07211162566909261  0.7337445122406399 0.07211162566909261  C 0.3416310802121515 0.07211162566909261  0.023760338046761902 0.3965027933147978  0.023760338046761902 0.7966595777951526  C 0.023760338046761902 1.1968163622755073  0.3416310802121515 1.5212075299212127  0.7337445122406399 1.5212075299212127  Z " stroke-width="0" stroke-dasharray="0" stroke="rgba(255, 255, 255, 0)" fill="none" transform="matrix(1 0 0 1 211 53 )" class="stroke" mask="url(#Clip110)" />
    <path d="M 14.22344385728486 5.506221278643171  L 4.283665394996876 5.506221278643172  C 3.8915519629683875 5.506221278643172  3.573681220802998 5.830612446288876  3.573681220802998 6.23076923076923  C 3.573681220802998 6.630926015249585  3.8915519629683875 6.955317182895292  4.283665394996876 6.955317182895292  L 14.22344385728486 6.955317182895292  C 14.61555728931335 6.955317182895292  14.933428031478739 6.630926015249585  14.933428031478739 6.23076923076923  C 14.933428031478739 5.830612446288876  14.61555728931335 5.506221278643172  14.22344385728486 5.506221278643172  Z " stroke-width="0" stroke-dasharray="0" stroke="rgba(255, 255, 255, 0)" fill="none" transform="matrix(1 0 0 1 211 53 )" class="stroke" mask="url(#Clip110)" />
  </g>
</svg>