<?xml version="1.0" encoding="utf-8"?>
<svg version="1.1" xmlns:xlink="http://www.w3.org/1999/xlink" width="15px" height="10px" xmlns="http://www.w3.org/2000/svg">
  <defs>
    <pattern id="BGPattern" patternUnits="userSpaceOnUse" alignment="0 0" imageRepeat="None" />
    <mask fill="white" id="Clip111">
      <path d="M 0.20792363436920167 4.327296002960328  L 3.195332174156583 7.375928307539886  C 3.331097891651097 7.515760919728695  3.5157985905216207 7.594399077769699  3.708463520941034 7.594399077769699  C 4.107873856932414 7.594399077769699  4.431659908517821 7.263198078438061  4.431659908517821 6.854640940859093  C 4.431659908517821 6.659325631388121  4.356146890949722 6.471936135593298  4.221594867725485 6.3333535741783  L 1.698113311472349 3.816793893129771  L 4.221594867725486 1.300234212081242  C 4.356146890949722 1.1616516506662464  4.431659908517821 0.9742621548714252  4.431659908517821 0.7789468454004498  C 4.431659908517821 0.3703897078214825  4.107873856932414 0.03918870848984405  3.708463520941034 0.03918870848984405  C 3.5157985905216202 0.03918870848984405  3.331097891651097 0.11782686653084631  3.195332174156582 0.2576594787196577  L 0.20792363436920167 3.306291783299214  C 0.0748520492870005 3.4412991706178797  0 3.6250769563207315  0 3.816793893129771  C 0 4.0085108299388095  0.07485204928700093 4.1922886156416626  0.20792363436920167 4.327296002960328  Z M 14.231170784078046 8.49040474129956  L 0.8756973031636186 8.490404741299562  C 0.4874854973244684 8.490404741299562  0.17277764811594834 8.812319640489955  0.17277764811594834 9.209421793027712  C 0.17277764811594834 9.606523945565469  0.4874854973244684 9.928438844755863  0.8756973031636186 9.928438844755863  C 0.8756973031636186 9.928438844755863  0.8756973031636186 9.928438844755863  0.8756973031636184 10  L 14.231170784078046 10  C 14.231170784078046 9.928438844755863  14.231170784078046 9.928438844755863  14.231170784078046 9.928438844755863  C 14.619382589917198 9.928438844755863  14.934090439125717 9.606523945565469  14.934090439125717 9.209421793027712  C 14.934090439125717 8.812319640489955  14.619382589917198 8.490404741299562  14.231170784078046 8.490404741299562  Z " fill-rule="evenodd" />
    </mask>
  </defs>
  <g transform="matrix(1 0 0 1 -211 -55 )">
    <path d="M 0.20792363436920167 4.327296002960328  L 3.195332174156583 7.375928307539886  C 3.331097891651097 7.515760919728695  3.5157985905216207 7.594399077769699  3.708463520941034 7.594399077769699  C 4.107873856932414 7.594399077769699  4.431659908517821 7.263198078438061  4.431659908517821 6.854640940859093  C 4.431659908517821 6.659325631388121  4.356146890949722 6.471936135593298  4.221594867725485 6.3333535741783  L 1.698113311472349 3.816793893129771  L 4.221594867725486 1.300234212081242  C 4.356146890949722 1.1616516506662464  4.431659908517821 0.9742621548714252  4.431659908517821 0.7789468454004498  C 4.431659908517821 0.3703897078214825  4.107873856932414 0.03918870848984405  3.708463520941034 0.03918870848984405  C 3.5157985905216202 0.03918870848984405  3.331097891651097 0.11782686653084631  3.195332174156582 0.2576594787196577  L 0.20792363436920167 3.306291783299214  C 0.0748520492870005 3.4412991706178797  0 3.6250769563207315  0 3.816793893129771  C 0 4.0085108299388095  0.07485204928700093 4.1922886156416626  0.20792363436920167 4.327296002960328  Z M 14.231170784078046 8.49040474129956  L 0.8756973031636186 8.490404741299562  C 0.4874854973244684 8.490404741299562  0.17277764811594834 8.812319640489955  0.17277764811594834 9.209421793027712  C 0.17277764811594834 9.606523945565469  0.4874854973244684 9.928438844755863  0.8756973031636186 9.928438844755863  C 0.8756973031636186 9.928438844755863  0.8756973031636186 9.928438844755863  0.8756973031636184 10  L 14.231170784078046 10  C 14.231170784078046 9.928438844755863  14.231170784078046 9.928438844755863  14.231170784078046 9.928438844755863  C 14.619382589917198 9.928438844755863  14.934090439125717 9.606523945565469  14.934090439125717 9.209421793027712  C 14.934090439125717 8.812319640489955  14.619382589917198 8.490404741299562  14.231170784078046 8.490404741299562  Z " fill-rule="nonzero" fill="rgba(158, 158, 158, 1)" stroke="none" transform="matrix(1 0 0 1 211 55 )" class="fill" />
    <path d="M 0.20792363436920167 4.327296002960328  L 3.195332174156583 7.375928307539886  C 3.331097891651097 7.515760919728695  3.5157985905216207 7.594399077769699  3.708463520941034 7.594399077769699  C 4.107873856932414 7.594399077769699  4.431659908517821 7.263198078438061  4.431659908517821 6.854640940859093  C 4.431659908517821 6.659325631388121  4.356146890949722 6.471936135593298  4.221594867725485 6.3333535741783  L 1.698113311472349 3.816793893129771  L 4.221594867725486 1.300234212081242  C 4.356146890949722 1.1616516506662464  4.431659908517821 0.9742621548714252  4.431659908517821 0.7789468454004498  C 4.431659908517821 0.3703897078214825  4.107873856932414 0.03918870848984405  3.708463520941034 0.03918870848984405  C 3.5157985905216202 0.03918870848984405  3.331097891651097 0.11782686653084631  3.195332174156582 0.2576594787196577  L 0.20792363436920167 3.306291783299214  C 0.0748520492870005 3.4412991706178797  0 3.6250769563207315  0 3.816793893129771  C 0 4.0085108299388095  0.07485204928700093 4.1922886156416626  0.20792363436920167 4.327296002960328  Z " stroke-width="0" stroke-dasharray="0" stroke="rgba(255, 255, 255, 0)" fill="none" transform="matrix(1 0 0 1 211 55 )" class="stroke" mask="url(#Clip111)" />
    <path d="M 14.231170784078046 8.49040474129956  L 0.8756973031636186 8.490404741299562  C 0.4874854973244684 8.490404741299562  0.17277764811594834 8.812319640489955  0.17277764811594834 9.209421793027712  C 0.17277764811594834 9.606523945565469  0.4874854973244684 9.928438844755863  0.8756973031636186 9.928438844755863  C 0.8756973031636186 9.928438844755863  0.8756973031636186 9.928438844755863  0.8756973031636184 10  L 14.231170784078046 10  C 14.231170784078046 9.928438844755863  14.231170784078046 9.928438844755863  14.231170784078046 9.928438844755863  C 14.619382589917198 9.928438844755863  14.934090439125717 9.606523945565469  14.934090439125717 9.209421793027712  C 14.934090439125717 8.812319640489955  14.619382589917198 8.490404741299562  14.231170784078046 8.490404741299562  Z " stroke-width="0" stroke-dasharray="0" stroke="rgba(255, 255, 255, 0)" fill="none" transform="matrix(1 0 0 1 211 55 )" class="stroke" mask="url(#Clip111)" />
  </g>
</svg>