<?xml version="1.0" encoding="utf-8"?>
<svg version="1.1" xmlns:xlink="http://www.w3.org/1999/xlink" width="15px" height="15px" xmlns="http://www.w3.org/2000/svg">
  <defs>
    <pattern id="BGPattern" patternUnits="userSpaceOnUse" alignment="0 0" imageRepeat="None" />
    <mask fill="white" id="Clip137">
      <path d="M 7.499843745117188 13.124960668945311  C 7.020146264648438 13.124960668945311  6.249817734375001 13.124960668945311  6.249817734375001 13.124960668945311  L 2.812558696289062 14.999999692382813  L 2.812558696289062 11.562740654296876  C 1.099085537109375 10.359903120117188  0 8.633617192382813  0 6.562324086914065  C 0 2.938186157226562  3.3578825390625004 0  7.499843745117188 0  C 11.641804951171874 0  14.999687329101562 2.938186157226562  14.999687329101562 6.562324072265625  C 14.999999838867188 10.187087021484375  11.6421174609375 13.124960668945311  7.499843745117188 13.124960668945311  Z M 7.499843745117188 0.937207001953125  C 3.875705815429687 0.937207001953125  0.936894653320312 3.4556969238281248  0.936894653320312 6.562324072265625  C 0.936894653320312 8.468613750000001  2.0578554785156244 10.232400454101562  3.7500782080078117 11.249609121093751  L 3.7500782080078117 13.333089990234377  L 6.249505224609375 12.187441142578125  C 6.249505224609375 12.187441142578125  6.952332348632813 12.187441142578125  7.4995312353515615 12.187441142578125  C 11.123669165039063 12.187441142578125  14.062480327148437 9.668951220703129  14.062480327148437 6.562324072265627  C 14.062792836914063 3.4553844140625  11.123981674804687 0.937207001953125  7.499843745117188 0.937207001953125  Z M 11.250234301757812 7.499843583984375  C 10.732098515625 7.499843583984375  10.312402280273439 7.0801473486328135  10.312402280273439 6.5620115625  C 10.312402280273439 6.043875776367187  10.732098515625 5.624179541015625  11.250234301757812 5.624179541015625  C 11.767745068359375 5.624179541015625  12.187441303710937 6.043875776367187  12.187441303710937 6.5620115625  C 12.187441303710937 7.0801473486328135  11.767745068359375 7.499843583984375  11.250234301757812 7.499843583984375  Z M 7.499843745117188 7.499843583984375  C 6.981707958984375 7.499843583984375  6.5620117236328115 7.0801473486328135  6.5620117236328115 6.5620115625  C 6.5620117236328115 6.043875776367187  6.981707958984375 5.624179541015625  7.499843745117188 5.624179541015625  C 8.017979531249999 5.624179541015625  8.437675766601561 6.043875776367187  8.437675766601561 6.5620115625  C 8.437675766601561 7.0801473486328135  8.017979531249999 7.499843583984375  7.499843745117188 7.499843583984375  Z M 3.7497656982421876 7.499843583984375  C 3.2322549316406253 7.499843583984375  2.812558696289062 7.0801473486328135  2.812558696289062 6.562324072265625  C 2.812558696289062 6.044500795898438  3.2322549316406253 5.62449205078125  3.7497656982421876 5.62449205078125  C 4.267901484375 5.62449205078125  4.687597719726562 6.044188286132812  4.687597719726562 6.562324072265625  C 4.687597719726562 7.080459858398439  4.2675889746093745 7.499843583984375  3.7497656982421876 7.499843583984375  Z " fill-rule="evenodd" />
    </mask>
  </defs>
  <g transform="matrix(1 0 0 1 -51 -50 )">
    <path d="M 7.499843745117188 13.124960668945311  C 7.020146264648438 13.124960668945311  6.249817734375001 13.124960668945311  6.249817734375001 13.124960668945311  L 2.812558696289062 14.999999692382813  L 2.812558696289062 11.562740654296876  C 1.099085537109375 10.359903120117188  0 8.633617192382813  0 6.562324086914065  C 0 2.938186157226562  3.3578825390625004 0  7.499843745117188 0  C 11.641804951171874 0  14.999687329101562 2.938186157226562  14.999687329101562 6.562324072265625  C 14.999999838867188 10.187087021484375  11.6421174609375 13.124960668945311  7.499843745117188 13.124960668945311  Z M 7.499843745117188 0.937207001953125  C 3.875705815429687 0.937207001953125  0.936894653320312 3.4556969238281248  0.936894653320312 6.562324072265625  C 0.936894653320312 8.468613750000001  2.0578554785156244 10.232400454101562  3.7500782080078117 11.249609121093751  L 3.7500782080078117 13.333089990234377  L 6.249505224609375 12.187441142578125  C 6.249505224609375 12.187441142578125  6.952332348632813 12.187441142578125  7.4995312353515615 12.187441142578125  C 11.123669165039063 12.187441142578125  14.062480327148437 9.668951220703129  14.062480327148437 6.562324072265627  C 14.062792836914063 3.4553844140625  11.123981674804687 0.937207001953125  7.499843745117188 0.937207001953125  Z M 11.250234301757812 7.499843583984375  C 10.732098515625 7.499843583984375  10.312402280273439 7.0801473486328135  10.312402280273439 6.5620115625  C 10.312402280273439 6.043875776367187  10.732098515625 5.624179541015625  11.250234301757812 5.624179541015625  C 11.767745068359375 5.624179541015625  12.187441303710937 6.043875776367187  12.187441303710937 6.5620115625  C 12.187441303710937 7.0801473486328135  11.767745068359375 7.499843583984375  11.250234301757812 7.499843583984375  Z M 7.499843745117188 7.499843583984375  C 6.981707958984375 7.499843583984375  6.5620117236328115 7.0801473486328135  6.5620117236328115 6.5620115625  C 6.5620117236328115 6.043875776367187  6.981707958984375 5.624179541015625  7.499843745117188 5.624179541015625  C 8.017979531249999 5.624179541015625  8.437675766601561 6.043875776367187  8.437675766601561 6.5620115625  C 8.437675766601561 7.0801473486328135  8.017979531249999 7.499843583984375  7.499843745117188 7.499843583984375  Z M 3.7497656982421876 7.499843583984375  C 3.2322549316406253 7.499843583984375  2.812558696289062 7.0801473486328135  2.812558696289062 6.562324072265625  C 2.812558696289062 6.044500795898438  3.2322549316406253 5.62449205078125  3.7497656982421876 5.62449205078125  C 4.267901484375 5.62449205078125  4.687597719726562 6.044188286132812  4.687597719726562 6.562324072265625  C 4.687597719726562 7.080459858398439  4.2675889746093745 7.499843583984375  3.7497656982421876 7.499843583984375  Z " fill-rule="nonzero" fill="rgba(255, 255, 255, 1)" stroke="none" transform="matrix(1 0 0 1 51 50 )" class="fill" />
    <path d="M 7.499843745117188 13.124960668945311  C 7.020146264648438 13.124960668945311  6.249817734375001 13.124960668945311  6.249817734375001 13.124960668945311  L 2.812558696289062 14.999999692382813  L 2.812558696289062 11.562740654296876  C 1.099085537109375 10.359903120117188  0 8.633617192382813  0 6.562324086914065  C 0 2.938186157226562  3.3578825390625004 0  7.499843745117188 0  C 11.641804951171874 0  14.999687329101562 2.938186157226562  14.999687329101562 6.562324072265625  C 14.999999838867188 10.187087021484375  11.6421174609375 13.124960668945311  7.499843745117188 13.124960668945311  Z " stroke-width="0" stroke-dasharray="0" stroke="rgba(255, 255, 255, 0)" fill="none" transform="matrix(1 0 0 1 51 50 )" class="stroke" mask="url(#Clip137)" />
    <path d="M 7.499843745117188 0.937207001953125  C 3.875705815429687 0.937207001953125  0.936894653320312 3.4556969238281248  0.936894653320312 6.562324072265625  C 0.936894653320312 8.468613750000001  2.0578554785156244 10.232400454101562  3.7500782080078117 11.249609121093751  L 3.7500782080078117 13.333089990234377  L 6.249505224609375 12.187441142578125  C 6.249505224609375 12.187441142578125  6.952332348632813 12.187441142578125  7.4995312353515615 12.187441142578125  C 11.123669165039063 12.187441142578125  14.062480327148437 9.668951220703129  14.062480327148437 6.562324072265627  C 14.062792836914063 3.4553844140625  11.123981674804687 0.937207001953125  7.499843745117188 0.937207001953125  Z " stroke-width="0" stroke-dasharray="0" stroke="rgba(255, 255, 255, 0)" fill="none" transform="matrix(1 0 0 1 51 50 )" class="stroke" mask="url(#Clip137)" />
    <path d="M 11.250234301757812 7.499843583984375  C 10.732098515625 7.499843583984375  10.312402280273439 7.0801473486328135  10.312402280273439 6.5620115625  C 10.312402280273439 6.043875776367187  10.732098515625 5.624179541015625  11.250234301757812 5.624179541015625  C 11.767745068359375 5.624179541015625  12.187441303710937 6.043875776367187  12.187441303710937 6.5620115625  C 12.187441303710937 7.0801473486328135  11.767745068359375 7.499843583984375  11.250234301757812 7.499843583984375  Z " stroke-width="0" stroke-dasharray="0" stroke="rgba(255, 255, 255, 0)" fill="none" transform="matrix(1 0 0 1 51 50 )" class="stroke" mask="url(#Clip137)" />
    <path d="M 7.499843745117188 7.499843583984375  C 6.981707958984375 7.499843583984375  6.5620117236328115 7.0801473486328135  6.5620117236328115 6.5620115625  C 6.5620117236328115 6.043875776367187  6.981707958984375 5.624179541015625  7.499843745117188 5.624179541015625  C 8.017979531249999 5.624179541015625  8.437675766601561 6.043875776367187  8.437675766601561 6.5620115625  C 8.437675766601561 7.0801473486328135  8.017979531249999 7.499843583984375  7.499843745117188 7.499843583984375  Z " stroke-width="0" stroke-dasharray="0" stroke="rgba(255, 255, 255, 0)" fill="none" transform="matrix(1 0 0 1 51 50 )" class="stroke" mask="url(#Clip137)" />
    <path d="M 3.7497656982421876 7.499843583984375  C 3.2322549316406253 7.499843583984375  2.812558696289062 7.0801473486328135  2.812558696289062 6.562324072265625  C 2.812558696289062 6.044500795898438  3.2322549316406253 5.62449205078125  3.7497656982421876 5.62449205078125  C 4.267901484375 5.62449205078125  4.687597719726562 6.044188286132812  4.687597719726562 6.562324072265625  C 4.687597719726562 7.080459858398439  4.2675889746093745 7.499843583984375  3.7497656982421876 7.499843583984375  Z " stroke-width="0" stroke-dasharray="0" stroke="rgba(255, 255, 255, 0)" fill="none" transform="matrix(1 0 0 1 51 50 )" class="stroke" mask="url(#Clip137)" />
  </g>
</svg>