<?xml version="1.0" encoding="utf-8"?>
<svg version="1.1" xmlns:xlink="http://www.w3.org/1999/xlink" width="8px" height="5px" xmlns="http://www.w3.org/2000/svg">
  <defs>
    <pattern id="BGPattern" patternUnits="userSpaceOnUse" alignment="0 0" imageRepeat="None" />
    <mask fill="white" id="Clip138">
      <path d="M 8 4.021164031498016  L 4 0.052910063244046984  L 0 4.021164031498016  L 0.9333333437500005 4.947089936755954  L 4 1.9047619047619047  L 7.06666665625 4.947089936755954  L 8 4.021164031498016  Z " fill-rule="evenodd" />
    </mask>
  </defs>
  <g transform="matrix(1 0 0 1 -184 -55 )">
    <path d="M 8 4.021164031498016  L 4 0.052910063244046984  L 0 4.021164031498016  L 0.9333333437500005 4.947089936755954  L 4 1.9047619047619047  L 7.06666665625 4.947089936755954  L 8 4.021164031498016  Z " fill-rule="nonzero" fill="rgba(255, 255, 255, 1)" stroke="none" transform="matrix(1 0 0 1 184 55 )" class="fill" />
    <path d="M 8 4.021164031498016  L 4 0.052910063244046984  L 0 4.021164031498016  L 0.9333333437500005 4.947089936755954  L 4 1.9047619047619047  L 7.06666665625 4.947089936755954  L 8 4.021164031498016  Z " stroke-width="0" stroke-dasharray="0" stroke="rgba(255, 255, 255, 0)" fill="none" transform="matrix(1 0 0 1 184 55 )" class="stroke" mask="url(#Clip138)" />
  </g>
</svg>