<?xml version="1.0" encoding="utf-8"?>
<svg version="1.1" xmlns:xlink="http://www.w3.org/1999/xlink" width="10px" height="10px" xmlns="http://www.w3.org/2000/svg">
  <defs>
    <pattern id="BGPattern" patternUnits="userSpaceOnUse" alignment="0 0" imageRepeat="None" />
    <mask fill="white" id="Clip141">
      <path d="M 2.864704740084134 1.0769554537259616  C 3.279269121169523 0.9015921981738145  3.7249563750614474 0.8116839492244611  4.175084172175481 0.8126133188100959  C 5.897435897435899 0.8153651968149038  7.33780108173077 2.1221833809094552  7.507446251502403 3.836117588141026  C 7.6772532927684285 5.550051807892627  6.521140887920672 7.114089618389422  4.832944836738781 7.454513083433493  C 3.144586901542467 7.795098419971955  1.4727402218549677 6.801508676382212  0.9649378380408649 5.155723908253206  C 0.4571354542267624 3.5099391401242004  1.2781662785456724 1.7471186273036865  2.864704740084134 1.0769554537259616  Z M 8.31908831630609 4.179616674178686  C 8.31908831630609 1.8910256410256419  6.463675205328525 0.03561253004807765  4.175084172175481 0.03561253004807696  C 1.8864931390224362 0.03561253004807696  0.031080028044872147 1.891025641025641  0.031080028044872147 4.179616674178686  C 0.031080028044872147 6.468207707331729  1.8864931390224362 8.323620818309296  4.175084172175481 8.323620818309296  C 6.463675205328525 8.323620818309296  8.31908831630609 6.4682077073317314  8.31908831630609 4.179616674178686  Z M 9.933954927884617 9.7282116010617  C 9.873995411636333 9.873462354632034  9.73237939266024 9.968235172105436  9.5752395708133 9.968272473457532  C 9.472131618020857 9.96847546981503  9.373222849820289 9.927443189859968  9.300537422375802 9.854312349759617  L 7.332135454226764 7.885910381610578  C 7.184990935496796 7.733423978365385  7.187095315004006 7.491096867487982  7.336829840244391 7.341200470753205  C 7.486726236979166 7.191304074018429  7.7290533603766045 7.189199694511219  7.881377879607373 7.336506084735578  L 9.849779847756409 9.304908052884613  C 9.960821839008382 9.41602356207111  9.994038930947175 9.583067215090503  9.933954927884617 9.7282116010617  Z " fill-rule="evenodd" />
    </mask>
  </defs>
  <g transform="matrix(1 0 0 1 -1191 -53 )">
    <path d="M 2.864704740084134 1.0769554537259616  C 3.279269121169523 0.9015921981738145  3.7249563750614474 0.8116839492244611  4.175084172175481 0.8126133188100959  C 5.897435897435899 0.8153651968149038  7.33780108173077 2.1221833809094552  7.507446251502403 3.836117588141026  C 7.6772532927684285 5.550051807892627  6.521140887920672 7.114089618389422  4.832944836738781 7.454513083433493  C 3.144586901542467 7.795098419971955  1.4727402218549677 6.801508676382212  0.9649378380408649 5.155723908253206  C 0.4571354542267624 3.5099391401242004  1.2781662785456724 1.7471186273036865  2.864704740084134 1.0769554537259616  Z M 8.31908831630609 4.179616674178686  C 8.31908831630609 1.8910256410256419  6.463675205328525 0.03561253004807765  4.175084172175481 0.03561253004807696  C 1.8864931390224362 0.03561253004807696  0.031080028044872147 1.891025641025641  0.031080028044872147 4.179616674178686  C 0.031080028044872147 6.468207707331729  1.8864931390224362 8.323620818309296  4.175084172175481 8.323620818309296  C 6.463675205328525 8.323620818309296  8.31908831630609 6.4682077073317314  8.31908831630609 4.179616674178686  Z M 9.933954927884617 9.7282116010617  C 9.873995411636333 9.873462354632034  9.73237939266024 9.968235172105436  9.5752395708133 9.968272473457532  C 9.472131618020857 9.96847546981503  9.373222849820289 9.927443189859968  9.300537422375802 9.854312349759617  L 7.332135454226764 7.885910381610578  C 7.184990935496796 7.733423978365385  7.187095315004006 7.491096867487982  7.336829840244391 7.341200470753205  C 7.486726236979166 7.191304074018429  7.7290533603766045 7.189199694511219  7.881377879607373 7.336506084735578  L 9.849779847756409 9.304908052884613  C 9.960821839008382 9.41602356207111  9.994038930947175 9.583067215090503  9.933954927884617 9.7282116010617  Z " fill-rule="nonzero" fill="rgba(146, 146, 146, 1)" stroke="none" transform="matrix(1 0 0 1 1191 53 )" class="fill" />
    <path d="M 2.864704740084134 1.0769554537259616  C 3.279269121169523 0.9015921981738145  3.7249563750614474 0.8116839492244611  4.175084172175481 0.8126133188100959  C 5.897435897435899 0.8153651968149038  7.33780108173077 2.1221833809094552  7.507446251502403 3.836117588141026  C 7.6772532927684285 5.550051807892627  6.521140887920672 7.114089618389422  4.832944836738781 7.454513083433493  C 3.144586901542467 7.795098419971955  1.4727402218549677 6.801508676382212  0.9649378380408649 5.155723908253206  C 0.4571354542267624 3.5099391401242004  1.2781662785456724 1.7471186273036865  2.864704740084134 1.0769554537259616  Z " stroke-width="0" stroke-dasharray="0" stroke="rgba(255, 255, 255, 0)" fill="none" transform="matrix(1 0 0 1 1191 53 )" class="stroke" mask="url(#Clip141)" />
    <path d="M 8.31908831630609 4.179616674178686  C 8.31908831630609 1.8910256410256419  6.463675205328525 0.03561253004807765  4.175084172175481 0.03561253004807696  C 1.8864931390224362 0.03561253004807696  0.031080028044872147 1.891025641025641  0.031080028044872147 4.179616674178686  C 0.031080028044872147 6.468207707331729  1.8864931390224362 8.323620818309296  4.175084172175481 8.323620818309296  C 6.463675205328525 8.323620818309296  8.31908831630609 6.4682077073317314  8.31908831630609 4.179616674178686  Z " stroke-width="0" stroke-dasharray="0" stroke="rgba(255, 255, 255, 0)" fill="none" transform="matrix(1 0 0 1 1191 53 )" class="stroke" mask="url(#Clip141)" />
    <path d="M 9.933954927884617 9.7282116010617  C 9.873995411636333 9.873462354632034  9.73237939266024 9.968235172105436  9.5752395708133 9.968272473457532  C 9.472131618020857 9.96847546981503  9.373222849820289 9.927443189859968  9.300537422375802 9.854312349759617  L 7.332135454226764 7.885910381610578  C 7.184990935496796 7.733423978365385  7.187095315004006 7.491096867487982  7.336829840244391 7.341200470753205  C 7.486726236979166 7.191304074018429  7.7290533603766045 7.189199694511219  7.881377879607373 7.336506084735578  L 9.849779847756409 9.304908052884613  C 9.960821839008382 9.41602356207111  9.994038930947175 9.583067215090503  9.933954927884617 9.7282116010617  Z " stroke-width="0" stroke-dasharray="0" stroke="rgba(255, 255, 255, 0)" fill="none" transform="matrix(1 0 0 1 1191 53 )" class="stroke" mask="url(#Clip141)" />
  </g>
</svg>