<?xml version="1.0" encoding="utf-8"?>
<svg version="1.1" xmlns:xlink="http://www.w3.org/1999/xlink" width="15px" height="14px" xmlns="http://www.w3.org/2000/svg">
  <defs>
    <pattern id="BGPattern" patternUnits="userSpaceOnUse" alignment="0 0" imageRepeat="None" />
    <mask fill="white" id="Clip144">
      <path d="M 0.9164608095408138 0.08014420720451025  C 1.1288977687511024 0.08014420720451025  1.334374146042178 0.14935668477704547  1.4959821428571427 0.27534965034965037  L 1.5450892926897324 0.3165501229239505  L 7.6120535784040175 5.860664335664335  L 13.455803571428572 0.5209207522945805  C 13.623488275329008 0.3662085700507548  13.851898309518122 0.2791658336598667  14.090195957517686 0.2791658336598667  C 14.583307345147611 0.2791658336598667  14.983053107350276 0.6444346886329291  14.983053107350276 1.095016655884518  C 14.983053107350276 1.291821170843601  14.9051983136263 1.481992674450033  14.76383929268973 1.6304778491040213  L 14.719196421595983 1.6753496503496508  L 8.874553564453125 7.014277395651223  L 14.718750000000004 12.354020979020978  C 14.888361534481977 12.50727709207065  14.983808792036065 12.716176179011086  14.983808792036065 12.934137590653235  C 14.983808792036065 13.384719557904821  14.5840630298334 13.749988412877883  14.090951642203475 13.749988412877883  C 13.875553511106201 13.749988412877883  13.667416285198685 13.67883671129224  13.504910721261162 13.54965034965035  L 13.455803571428572 13.508041958041957  L 7.612053578404019 8.1682983746722  L 1.545089292689733 13.712820506446675  C 1.3776395483207902 13.865867267644855  1.1505032934103019 13.95185132788446  0.9136633581820706 13.95185132788446  C 0.4205519705521437 13.95185132788446  0.020806208349480975 13.586582472911399  0.020806208349480975 13.136000505659808  C 0.020806208349480975 12.940621554664071  0.09753933913296109 12.751730075128291  0.2370535714285728 12.603671328671329  L 0.28214286411830514 12.558799527425698  L 6.349553571428571 7.014277395651223  L 0.28258928571428604 1.470571101944929  C 0.1166922047968532 1.3177617269187285  0.023603659708224152 1.11123887289756  0.023603659708224152 0.8959950294291605  C 0.023603659708224152 0.44541306217757237  0.4233494219108869 0.08014420720451025  0.9164608095408138 0.08014420720451025  Z " fill-rule="evenodd" />
    </mask>
  </defs>
  <g transform="matrix(1 0 0 1 -1036 -932 )">
    <path d="M 0.9164608095408138 0.08014420720451025  C 1.1288977687511024 0.08014420720451025  1.334374146042178 0.14935668477704547  1.4959821428571427 0.27534965034965037  L 1.5450892926897324 0.3165501229239505  L 7.6120535784040175 5.860664335664335  L 13.455803571428572 0.5209207522945805  C 13.623488275329008 0.3662085700507548  13.851898309518122 0.2791658336598667  14.090195957517686 0.2791658336598667  C 14.583307345147611 0.2791658336598667  14.983053107350276 0.6444346886329291  14.983053107350276 1.095016655884518  C 14.983053107350276 1.291821170843601  14.9051983136263 1.481992674450033  14.76383929268973 1.6304778491040213  L 14.719196421595983 1.6753496503496508  L 8.874553564453125 7.014277395651223  L 14.718750000000004 12.354020979020978  C 14.888361534481977 12.50727709207065  14.983808792036065 12.716176179011086  14.983808792036065 12.934137590653235  C 14.983808792036065 13.384719557904821  14.5840630298334 13.749988412877883  14.090951642203475 13.749988412877883  C 13.875553511106201 13.749988412877883  13.667416285198685 13.67883671129224  13.504910721261162 13.54965034965035  L 13.455803571428572 13.508041958041957  L 7.612053578404019 8.1682983746722  L 1.545089292689733 13.712820506446675  C 1.3776395483207902 13.865867267644855  1.1505032934103019 13.95185132788446  0.9136633581820706 13.95185132788446  C 0.4205519705521437 13.95185132788446  0.020806208349480975 13.586582472911399  0.020806208349480975 13.136000505659808  C 0.020806208349480975 12.940621554664071  0.09753933913296109 12.751730075128291  0.2370535714285728 12.603671328671329  L 0.28214286411830514 12.558799527425698  L 6.349553571428571 7.014277395651223  L 0.28258928571428604 1.470571101944929  C 0.1166922047968532 1.3177617269187285  0.023603659708224152 1.11123887289756  0.023603659708224152 0.8959950294291605  C 0.023603659708224152 0.44541306217757237  0.4233494219108869 0.08014420720451025  0.9164608095408138 0.08014420720451025  Z " fill-rule="nonzero" fill="rgba(17, 17, 17, 1)" stroke="none" transform="matrix(1 0 0 1 1036 932 )" class="fill" />
    <path d="M 0.9164608095408138 0.08014420720451025  C 1.1288977687511024 0.08014420720451025  1.334374146042178 0.14935668477704547  1.4959821428571427 0.27534965034965037  L 1.5450892926897324 0.3165501229239505  L 7.6120535784040175 5.860664335664335  L 13.455803571428572 0.5209207522945805  C 13.623488275329008 0.3662085700507548  13.851898309518122 0.2791658336598667  14.090195957517686 0.2791658336598667  C 14.583307345147611 0.2791658336598667  14.983053107350276 0.6444346886329291  14.983053107350276 1.095016655884518  C 14.983053107350276 1.291821170843601  14.9051983136263 1.481992674450033  14.76383929268973 1.6304778491040213  L 14.719196421595983 1.6753496503496508  L 8.874553564453125 7.014277395651223  L 14.718750000000004 12.354020979020978  C 14.888361534481977 12.50727709207065  14.983808792036065 12.716176179011086  14.983808792036065 12.934137590653235  C 14.983808792036065 13.384719557904821  14.5840630298334 13.749988412877883  14.090951642203475 13.749988412877883  C 13.875553511106201 13.749988412877883  13.667416285198685 13.67883671129224  13.504910721261162 13.54965034965035  L 13.455803571428572 13.508041958041957  L 7.612053578404019 8.1682983746722  L 1.545089292689733 13.712820506446675  C 1.3776395483207902 13.865867267644855  1.1505032934103019 13.95185132788446  0.9136633581820706 13.95185132788446  C 0.4205519705521437 13.95185132788446  0.020806208349480975 13.586582472911399  0.020806208349480975 13.136000505659808  C 0.020806208349480975 12.940621554664071  0.09753933913296109 12.751730075128291  0.2370535714285728 12.603671328671329  L 0.28214286411830514 12.558799527425698  L 6.349553571428571 7.014277395651223  L 0.28258928571428604 1.470571101944929  C 0.1166922047968532 1.3177617269187285  0.023603659708224152 1.11123887289756  0.023603659708224152 0.8959950294291605  C 0.023603659708224152 0.44541306217757237  0.4233494219108869 0.08014420720451025  0.9164608095408138 0.08014420720451025  Z " stroke-width="0" stroke-dasharray="0" stroke="rgba(255, 255, 255, 0)" fill="none" transform="matrix(1 0 0 1 1036 932 )" class="stroke" mask="url(#Clip144)" />
  </g>
</svg>