<?xml version="1.0" encoding="utf-8"?>
<svg version="1.1" xmlns:xlink="http://www.w3.org/1999/xlink" width="15px" height="6px" xmlns="http://www.w3.org/2000/svg">
  <defs>
    <pattern id="BGPattern" patternUnits="userSpaceOnUse" alignment="0 0" imageRepeat="None" />
    <mask fill="white" id="Clip223">
      <path d="M 10.69601873536294 5.286765807962638  L 1.2737845433255188 5.286765807962638  C 0.7874783159659273 5.286401260463208  0.39344248631380196 4.892069830038508  0.393442622950829 4.405763466042117  L 0.393442622950829 1.5441569086651725  C 0.393442622950829 1.057957491405432  0.7875851260657782 0.6638149882905964  1.2737845433255188 0.6638149882905964  L 10.69601873536294 0.6638149882905964  C 11.182218152622681 0.6638149882905964  11.57636065573763 1.057957491405432  11.57636065573763 1.5441569086651725  L 11.57636065573763 4.405763466042117  C 11.576360792374658 4.892069830038508  11.182324962722532 5.286401260463208  10.69601873536294 5.286765807962638  Z M 13.43742857142854 4.2360351288057245  L 13.43742857142854 1.71454566744751  C 13.938170849972039 1.9338145544907093  14.261682456154858 2.42864455816607  14.261682456154858 2.975290398126617  C 14.261682456154858 3.5219362380871644  13.938170849972039 4.01676624176207  13.43742857142854 4.2360351288057245  Z " fill-rule="evenodd" />
    </mask>
  </defs>
  <g transform="matrix(1 0 0 1 -367 -122 )">
    <path d="M 10.69601873536294 5.286765807962638  L 1.2737845433255188 5.286765807962638  C 0.7874783159659273 5.286401260463208  0.39344248631380196 4.892069830038508  0.393442622950829 4.405763466042117  L 0.393442622950829 1.5441569086651725  C 0.393442622950829 1.057957491405432  0.7875851260657782 0.6638149882905964  1.2737845433255188 0.6638149882905964  L 10.69601873536294 0.6638149882905964  C 11.182218152622681 0.6638149882905964  11.57636065573763 1.057957491405432  11.57636065573763 1.5441569086651725  L 11.57636065573763 4.405763466042117  C 11.576360792374658 4.892069830038508  11.182324962722532 5.286401260463208  10.69601873536294 5.286765807962638  Z M 13.43742857142854 4.2360351288057245  L 13.43742857142854 1.71454566744751  C 13.938170849972039 1.9338145544907093  14.261682456154858 2.42864455816607  14.261682456154858 2.975290398126617  C 14.261682456154858 3.5219362380871644  13.938170849972039 4.01676624176207  13.43742857142854 4.2360351288057245  Z " fill-rule="nonzero" fill="rgba(0, 0, 0, 1)" stroke="none" transform="matrix(1 0 0 1 367 122 )" class="fill" />
    <path d="M 10.69601873536294 5.286765807962638  L 1.2737845433255188 5.286765807962638  C 0.7874783159659273 5.286401260463208  0.39344248631380196 4.892069830038508  0.393442622950829 4.405763466042117  L 0.393442622950829 1.5441569086651725  C 0.393442622950829 1.057957491405432  0.7875851260657782 0.6638149882905964  1.2737845433255188 0.6638149882905964  L 10.69601873536294 0.6638149882905964  C 11.182218152622681 0.6638149882905964  11.57636065573763 1.057957491405432  11.57636065573763 1.5441569086651725  L 11.57636065573763 4.405763466042117  C 11.576360792374658 4.892069830038508  11.182324962722532 5.286401260463208  10.69601873536294 5.286765807962638  Z " stroke-width="0" stroke-dasharray="0" stroke="rgba(255, 255, 255, 0)" fill="none" transform="matrix(1 0 0 1 367 122 )" class="stroke" mask="url(#Clip223)" />
    <path d="M 13.43742857142854 4.2360351288057245  L 13.43742857142854 1.71454566744751  C 13.938170849972039 1.9338145544907093  14.261682456154858 2.42864455816607  14.261682456154858 2.975290398126617  C 14.261682456154858 3.5219362380871644  13.938170849972039 4.01676624176207  13.43742857142854 4.2360351288057245  Z " stroke-width="0" stroke-dasharray="0" stroke="rgba(255, 255, 255, 0)" fill="none" transform="matrix(1 0 0 1 367 122 )" class="stroke" mask="url(#Clip223)" />
  </g>
</svg>