<?xml version="1.0" encoding="utf-8"?>
<svg version="1.1" xmlns:xlink="http://www.w3.org/1999/xlink" width="12px" height="8px" xmlns="http://www.w3.org/2000/svg">
  <defs>
    <pattern id="BGPattern" patternUnits="userSpaceOnUse" alignment="0 0" imageRepeat="None" />
    <mask fill="white" id="Clip19">
      <path d="M 11.057360655737682 7.16789344262294  L 10.377786885245882 7.16789344262294  C 10.010387584137732 7.176071201387984  9.705858341841065 6.88499228802624  9.697442622950803 6.517598360655725  L 9.697442622950803 0.8829918032786779  C 9.70627639024974 0.5159014578285266  10.010681416554178 0.22528601368963308  10.377786885245882 0.23346721311474283  L 11.057360655737682 0.23346721311474283  C 11.424466124429443 0.22528601368962953  11.72887115073388 0.5159014578285301  11.737704918032762 0.8829918032786779  L 11.737704918032762 6.517598360655725  C 11.729289199142556 6.88499228802624  11.424759956845833 7.176071201387984  11.057360655737682 7.16789344262294  Z M 7.885245901639337 7.16789344262294  L 7.205672131147537 7.16789344262294  C 6.8382728300393865 7.176071201387984  6.53374358774272 6.884992288026247  6.525327868852457 6.517598360655725  L 6.525327868852457 2.400860655737695  C 6.53374358774272 2.0334667283671735  6.8382728300393865 1.7423878150054364  7.205672131147537 1.75056557377048  L 7.885245901639337 1.75056557377048  C 8.252645202747487 1.7423878150054364  8.557174445044211 2.0334667283671735  8.565590163934417 2.400860655737695  L 8.565590163934417 6.517598360655725  C 8.557174445044211 6.88499228802624  8.252645202747487 7.176071201387984  7.885245901639337 7.16789344262294  Z M 4.712360655737712 7.16789344262294  L 4.032786885245912 7.16789344262294  C 3.6653875841377612 7.176071201387984  3.360858341841066 6.88499228802624  3.352442622950832 6.517598360655725  L 3.352442622950832 3.917188524590152  C 3.361276390249742 3.550098179140001  3.665681416554179 3.2594827350011073  4.032786885245912 3.267663934426217  L 4.712360655737712 3.267663934426217  C 5.079168224659327 3.2599139979464695  5.383098836267095 3.550405500877723  5.391934426229511 3.917188524590152  L 5.391934426229511 6.517598360655725  C 5.383516534893545 6.8846848975395005  5.07946198178422 7.175639594619163  4.712360655737712 7.16789344262294  Z M 1.540245901639338 7.16789344262294  L 0.8599016393442582 7.16789344262294  C 0.492800313297721 7.175639594619163  0.18874576018842504 6.884684897539508  0.18032786885245855 6.517598360655725  L 0.18032786885245855 5.217008196721302  C 0.18916345881487473 4.850225173008866  0.49309407042264297 4.5597336700776125  0.8599016393442582 4.567483606557367  L 1.540245901639338 4.567483606557367  C 1.9070534705609532 4.5597336700776125  2.21098408216875 4.850225173008866  2.2198196721311376 5.217008196721302  L 2.2198196721311376 6.517598360655725  C 2.2114017807951996 6.8846848975395005  1.9073472276858752 7.175639594619163  1.540245901639338 7.16789344262294  Z " fill-rule="evenodd" />
    </mask>
  </defs>
  <g transform="matrix(1 0 0 1 -338 -121 )">
    <path d="M 11.057360655737682 7.16789344262294  L 10.377786885245882 7.16789344262294  C 10.010387584137732 7.176071201387984  9.705858341841065 6.88499228802624  9.697442622950803 6.517598360655725  L 9.697442622950803 0.8829918032786779  C 9.70627639024974 0.5159014578285266  10.010681416554178 0.22528601368963308  10.377786885245882 0.23346721311474283  L 11.057360655737682 0.23346721311474283  C 11.424466124429443 0.22528601368962953  11.72887115073388 0.5159014578285301  11.737704918032762 0.8829918032786779  L 11.737704918032762 6.517598360655725  C 11.729289199142556 6.88499228802624  11.424759956845833 7.176071201387984  11.057360655737682 7.16789344262294  Z M 7.885245901639337 7.16789344262294  L 7.205672131147537 7.16789344262294  C 6.8382728300393865 7.176071201387984  6.53374358774272 6.884992288026247  6.525327868852457 6.517598360655725  L 6.525327868852457 2.400860655737695  C 6.53374358774272 2.0334667283671735  6.8382728300393865 1.7423878150054364  7.205672131147537 1.75056557377048  L 7.885245901639337 1.75056557377048  C 8.252645202747487 1.7423878150054364  8.557174445044211 2.0334667283671735  8.565590163934417 2.400860655737695  L 8.565590163934417 6.517598360655725  C 8.557174445044211 6.88499228802624  8.252645202747487 7.176071201387984  7.885245901639337 7.16789344262294  Z M 4.712360655737712 7.16789344262294  L 4.032786885245912 7.16789344262294  C 3.6653875841377612 7.176071201387984  3.360858341841066 6.88499228802624  3.352442622950832 6.517598360655725  L 3.352442622950832 3.917188524590152  C 3.361276390249742 3.550098179140001  3.665681416554179 3.2594827350011073  4.032786885245912 3.267663934426217  L 4.712360655737712 3.267663934426217  C 5.079168224659327 3.2599139979464695  5.383098836267095 3.550405500877723  5.391934426229511 3.917188524590152  L 5.391934426229511 6.517598360655725  C 5.383516534893545 6.8846848975395005  5.07946198178422 7.175639594619163  4.712360655737712 7.16789344262294  Z M 1.540245901639338 7.16789344262294  L 0.8599016393442582 7.16789344262294  C 0.492800313297721 7.175639594619163  0.18874576018842504 6.884684897539508  0.18032786885245855 6.517598360655725  L 0.18032786885245855 5.217008196721302  C 0.18916345881487473 4.850225173008866  0.49309407042264297 4.5597336700776125  0.8599016393442582 4.567483606557367  L 1.540245901639338 4.567483606557367  C 1.9070534705609532 4.5597336700776125  2.21098408216875 4.850225173008866  2.2198196721311376 5.217008196721302  L 2.2198196721311376 6.517598360655725  C 2.2114017807951996 6.8846848975395005  1.9073472276858752 7.175639594619163  1.540245901639338 7.16789344262294  Z " fill-rule="nonzero" fill="rgba(0, 0, 0, 1)" stroke="none" transform="matrix(1 0 0 1 338 121 )" class="fill" />
    <path d="M 11.057360655737682 7.16789344262294  L 10.377786885245882 7.16789344262294  C 10.010387584137732 7.176071201387984  9.705858341841065 6.88499228802624  9.697442622950803 6.517598360655725  L 9.697442622950803 0.8829918032786779  C 9.70627639024974 0.5159014578285266  10.010681416554178 0.22528601368963308  10.377786885245882 0.23346721311474283  L 11.057360655737682 0.23346721311474283  C 11.424466124429443 0.22528601368962953  11.72887115073388 0.5159014578285301  11.737704918032762 0.8829918032786779  L 11.737704918032762 6.517598360655725  C 11.729289199142556 6.88499228802624  11.424759956845833 7.176071201387984  11.057360655737682 7.16789344262294  Z " stroke-width="0" stroke-dasharray="0" stroke="rgba(255, 255, 255, 0)" fill="none" transform="matrix(1 0 0 1 338 121 )" class="stroke" mask="url(#Clip19)" />
    <path d="M 7.885245901639337 7.16789344262294  L 7.205672131147537 7.16789344262294  C 6.8382728300393865 7.176071201387984  6.53374358774272 6.884992288026247  6.525327868852457 6.517598360655725  L 6.525327868852457 2.400860655737695  C 6.53374358774272 2.0334667283671735  6.8382728300393865 1.7423878150054364  7.205672131147537 1.75056557377048  L 7.885245901639337 1.75056557377048  C 8.252645202747487 1.7423878150054364  8.557174445044211 2.0334667283671735  8.565590163934417 2.400860655737695  L 8.565590163934417 6.517598360655725  C 8.557174445044211 6.88499228802624  8.252645202747487 7.176071201387984  7.885245901639337 7.16789344262294  Z " stroke-width="0" stroke-dasharray="0" stroke="rgba(255, 255, 255, 0)" fill="none" transform="matrix(1 0 0 1 338 121 )" class="stroke" mask="url(#Clip19)" />
    <path d="M 4.712360655737712 7.16789344262294  L 4.032786885245912 7.16789344262294  C 3.6653875841377612 7.176071201387984  3.360858341841066 6.88499228802624  3.352442622950832 6.517598360655725  L 3.352442622950832 3.917188524590152  C 3.361276390249742 3.550098179140001  3.665681416554179 3.2594827350011073  4.032786885245912 3.267663934426217  L 4.712360655737712 3.267663934426217  C 5.079168224659327 3.2599139979464695  5.383098836267095 3.550405500877723  5.391934426229511 3.917188524590152  L 5.391934426229511 6.517598360655725  C 5.383516534893545 6.8846848975395005  5.07946198178422 7.175639594619163  4.712360655737712 7.16789344262294  Z " stroke-width="0" stroke-dasharray="0" stroke="rgba(255, 255, 255, 0)" fill="none" transform="matrix(1 0 0 1 338 121 )" class="stroke" mask="url(#Clip19)" />
    <path d="M 1.540245901639338 7.16789344262294  L 0.8599016393442582 7.16789344262294  C 0.492800313297721 7.175639594619163  0.18874576018842504 6.884684897539508  0.18032786885245855 6.517598360655725  L 0.18032786885245855 5.217008196721302  C 0.18916345881487473 4.850225173008866  0.49309407042264297 4.5597336700776125  0.8599016393442582 4.567483606557367  L 1.540245901639338 4.567483606557367  C 1.9070534705609532 4.5597336700776125  2.21098408216875 4.850225173008866  2.2198196721311376 5.217008196721302  L 2.2198196721311376 6.517598360655725  C 2.2114017807951996 6.8846848975395005  1.9073472276858752 7.175639594619163  1.540245901639338 7.16789344262294  Z " stroke-width="0" stroke-dasharray="0" stroke="rgba(255, 255, 255, 0)" fill="none" transform="matrix(1 0 0 1 338 121 )" class="stroke" mask="url(#Clip19)" />
  </g>
</svg>