<?xml version="1.0" encoding="utf-8"?>
<svg version="1.1" xmlns:xlink="http://www.w3.org/1999/xlink" width="90px" height="136px" xmlns="http://www.w3.org/2000/svg">
  <g transform="matrix(1 0 0 1 -1235 -812 )">
    <path d="M 1235 812  L 1325 812  L 1325 948  L 1235 948  L 1235 812  " fill-rule="nonzero" fill="rgba(204, 204, 204, 1)" stroke="none" class="fill" />
    <path d="M 1241 818  L 1319 818  L 1319 942  L 1241 942  L 1241 818  " fill-rule="nonzero" fill="rgba(255, 255, 255, 1)" stroke="none" class="fill" />
    <path d="M 1288.55 845.9  C 1284.77 845.9  1281.8 842.93  1281.8 839.15  C 1281.8 835.37  1284.77 832.4  1288.55 832.4  C 1292.33 832.4  1295.3 835.37  1295.3 839.15  C 1295.3 842.93  1292.33 845.9  1288.55 845.9  " fill-rule="nonzero" fill="rgba(204, 204, 204, 1)" stroke="none" class="fill" />
    <path d="M 1244 940  L 1244 874.55  L 1262.25 844.8  L 1287.8 868.6  L 1302.4 862.65  L 1317 868.6  L 1317 940  L 1244 940  " fill-rule="nonzero" fill="rgba(22, 155, 213, 1)" stroke="none" class="fill" />
  </g>
</svg>