<?xml version="1.0" encoding="utf-8"?>
<svg version="1.1" xmlns:xlink="http://www.w3.org/1999/xlink" width="293px" height="626px" xmlns="http://www.w3.org/2000/svg">
  <defs>
    <pattern id="BGPattern" patternUnits="userSpaceOnUse" alignment="0 0" imageRepeat="None" />
    <mask fill="white" id="Clip281">
      <path d="M 257.8360655737705 624  L 35.1639344262295 624  C 12.829594846631721 624.2331380235015  2.032786885245912 611.9561054527408  2 591.2655977202869  L 2 35.41078922559392  C 2.032786885245912 8.58594620976681  19.764373779296875 1.6760901639344112  37.47540983606558 2  L 62.3288964443519 2  C 64.29914330654452 1.781476317286476  65.87890074683017 3.3532796469516306  65.98360655737704 5.31786231688201  C 65.98360655737704 17.204923865896745  72.7219063180392 24.676982865630585  83.70491803278688 25  L 209.2950819672131 25  C 220.2784405067319 24.676982865630585  227.01639344262293 17.204923865896745  227.01639344262293 5.31786231688201  C 227.1210110773806 3.3532796469516306  228.70086257184136 1.781476317286476  230.67143274526126 2  L 255.52459016393442 2  C 273.2356276902996 1.6760901639344112  290.9672131147541 8.58594620976681  291 35.41078922559392  L 291 591.2655977202869  C 290.9672131147541 611.9561054527408  280.170054654606 624.2334672131147  257.8360655737705 624  Z M 9.117370605468693 616.5817838434938  C 15.039468233702621 622.6814322409708  23.802777900070453 625.7742627113217  35.1639344262295 625.7744508196721  L 257.8360655737705 625.7744508196721  C 269.1970530963335 625.7744508196721  277.96028487408745 622.6816203493212  283.8824552473475 616.5818778976691  C 286.7610126714237 613.617055159772  288.95126418989213 609.934175821273  290.39225502776316 605.6354297435322  C 291.7962622759772 601.4470092133068  292.5081967213115 596.6123424452484  292.5081967213115 591.2655977202869  L 292.5081967213115 35.41078922559392  C 292.5081967213115 22.657695568647522  288.5768051264716 13.186381341652776  280.8233461380005 7.259844429829066  C 274.6383516593057 2.532192208399522  266.12655608380425 0.13510655737703559  255.52459016393442 0.13510655737703559  L 230.6325707357438 0.14152731628103865  L 230.59413197001473 0.1434963918748302  C 229.2604084952933 0.21044349246727023  228.0044207963787 0.7660537446756699  227.05740106301226 1.7080227676854598  C 226.10961126108637 2.650847888055381  225.54851932212955 3.903753200187044  225.47754956855147 5.235933414896966  L 225.47540983606558 5.276855063891787  L 225.47540983606558 5.31786231688201  C 225.47540983606558 10.772944592710388  223.97474607874136 15.302579709412612  221.13565613793543 18.416907437183802  C 218.32139062099768 21.504182832811686  214.22691257664414 23.13599925907321  209.2950819672131 24  L 83.70491803278688 24  C 78.77316384237321 23.13599925907321  74.67877397380886 21.504182832811686  71.86443791623975 18.416907437183802  C 69.0252480428727 15.30249447281632  67.52459016393442 10.772944592710388  67.52459016393442 5.31786231688201  L 67.52459016393442 5.276855063891787  L 67.5223563772733 5.235847810901564  C 67.4513925020812 3.903753200187044  66.89038286052767 2.6509334920507825  65.94259893698771 1.7081083802917796  C 64.99566150102459 0.7661393486710679  63.73975609951333 0.21044349246727023  62.40620897637036 0.1434963918748302  L 62.367764332255376 0.14152731628103865  L 62.329343201684175 0.14152731628103865  L 37.475833079853935 0.13510655737703559  C 26.873435098616824 0.13510655737703559  18.361649810290714 2.532192208399522  12.1766472488153 7.259844429829066  C 4.423197261622704 13.186381341652776  0.4918032786885078 22.657695568647522  0.4918032786885078 35.41078922559392  L 0.4918032786885078 591.2655977202869  C 0.4918032786885078 596.6123424452484  1.2036523037269262 601.4470092133068  2.607669517642137 605.635335689357  C 4.0486500224129145 609.9340817670978  6.23881905977845 613.6169611055968  9.117370605468693 616.5817838434938  Z " fill-rule="evenodd" />
    </mask>
  </defs>
  <g transform="matrix(1 0 0 1 -105 -108 )">
    <path d="M 257.8360655737705 624  L 35.1639344262295 624  C 12.829594846631721 624.2331380235015  2.032786885245912 611.9561054527408  2 591.2655977202869  L 2 35.41078922559392  C 2.032786885245912 8.58594620976681  19.764373779296875 1.6760901639344112  37.47540983606558 2  L 62.3288964443519 2  C 64.29914330654452 1.781476317286476  65.87890074683017 3.3532796469516306  65.98360655737704 5.31786231688201  C 65.98360655737704 17.204923865896745  72.7219063180392 24.676982865630585  83.70491803278688 25  L 209.2950819672131 25  C 220.2784405067319 24.676982865630585  227.01639344262293 17.204923865896745  227.01639344262293 5.31786231688201  C 227.1210110773806 3.3532796469516306  228.70086257184136 1.781476317286476  230.67143274526126 2  L 255.52459016393442 2  C 273.2356276902996 1.6760901639344112  290.9672131147541 8.58594620976681  291 35.41078922559392  L 291 591.2655977202869  C 290.9672131147541 611.9561054527408  280.170054654606 624.2334672131147  257.8360655737705 624  Z M 9.117370605468693 616.5817838434938  C 15.039468233702621 622.6814322409708  23.802777900070453 625.7742627113217  35.1639344262295 625.7744508196721  L 257.8360655737705 625.7744508196721  C 269.1970530963335 625.7744508196721  277.96028487408745 622.6816203493212  283.8824552473475 616.5818778976691  C 286.7610126714237 613.617055159772  288.95126418989213 609.934175821273  290.39225502776316 605.6354297435322  C 291.7962622759772 601.4470092133068  292.5081967213115 596.6123424452484  292.5081967213115 591.2655977202869  L 292.5081967213115 35.41078922559392  C 292.5081967213115 22.657695568647522  288.5768051264716 13.186381341652776  280.8233461380005 7.259844429829066  C 274.6383516593057 2.532192208399522  266.12655608380425 0.13510655737703559  255.52459016393442 0.13510655737703559  L 230.6325707357438 0.14152731628103865  L 230.59413197001473 0.1434963918748302  C 229.2604084952933 0.21044349246727023  228.0044207963787 0.7660537446756699  227.05740106301226 1.7080227676854598  C 226.10961126108637 2.650847888055381  225.54851932212955 3.903753200187044  225.47754956855147 5.235933414896966  L 225.47540983606558 5.276855063891787  L 225.47540983606558 5.31786231688201  C 225.47540983606558 10.772944592710388  223.97474607874136 15.302579709412612  221.13565613793543 18.416907437183802  C 218.32139062099768 21.504182832811686  214.22691257664414 23.13599925907321  209.2950819672131 24  L 83.70491803278688 24  C 78.77316384237321 23.13599925907321  74.67877397380886 21.504182832811686  71.86443791623975 18.416907437183802  C 69.0252480428727 15.30249447281632  67.52459016393442 10.772944592710388  67.52459016393442 5.31786231688201  L 67.52459016393442 5.276855063891787  L 67.5223563772733 5.235847810901564  C 67.4513925020812 3.903753200187044  66.89038286052767 2.6509334920507825  65.94259893698771 1.7081083802917796  C 64.99566150102459 0.7661393486710679  63.73975609951333 0.21044349246727023  62.40620897637036 0.1434963918748302  L 62.367764332255376 0.14152731628103865  L 62.329343201684175 0.14152731628103865  L 37.475833079853935 0.13510655737703559  C 26.873435098616824 0.13510655737703559  18.361649810290714 2.532192208399522  12.1766472488153 7.259844429829066  C 4.423197261622704 13.186381341652776  0.4918032786885078 22.657695568647522  0.4918032786885078 35.41078922559392  L 0.4918032786885078 591.2655977202869  C 0.4918032786885078 596.6123424452484  1.2036523037269262 601.4470092133068  2.607669517642137 605.635335689357  C 4.0486500224129145 609.9340817670978  6.23881905977845 613.6169611055968  9.117370605468693 616.5817838434938  Z " fill-rule="nonzero" fill="rgba(0, 0, 0, 1)" stroke="none" transform="matrix(1 0 0 1 105 108 )" class="fill" />
    <path d="M 257.8360655737705 624  L 35.1639344262295 624  C 12.829594846631721 624.2331380235015  2.032786885245912 611.9561054527408  2 591.2655977202869  L 2 35.41078922559392  C 2.032786885245912 8.58594620976681  19.764373779296875 1.6760901639344112  37.47540983606558 2  L 62.3288964443519 2  C 64.29914330654452 1.781476317286476  65.87890074683017 3.3532796469516306  65.98360655737704 5.31786231688201  C 65.98360655737704 17.204923865896745  72.7219063180392 24.676982865630585  83.70491803278688 25  L 209.2950819672131 25  C 220.2784405067319 24.676982865630585  227.01639344262293 17.204923865896745  227.01639344262293 5.31786231688201  C 227.1210110773806 3.3532796469516306  228.70086257184136 1.781476317286476  230.67143274526126 2  L 255.52459016393442 2  C 273.2356276902996 1.6760901639344112  290.9672131147541 8.58594620976681  291 35.41078922559392  L 291 591.2655977202869  C 290.9672131147541 611.9561054527408  280.170054654606 624.2334672131147  257.8360655737705 624  Z " stroke-width="2" stroke-dasharray="0" stroke="rgba(255, 255, 255, 0)" fill="none" transform="matrix(1 0 0 1 105 108 )" class="stroke" mask="url(#Clip281)" />
    <path d="M 9.117370605468693 616.5817838434938  C 15.039468233702621 622.6814322409708  23.802777900070453 625.7742627113217  35.1639344262295 625.7744508196721  L 257.8360655737705 625.7744508196721  C 269.1970530963335 625.7744508196721  277.96028487408745 622.6816203493212  283.8824552473475 616.5818778976691  C 286.7610126714237 613.617055159772  288.95126418989213 609.934175821273  290.39225502776316 605.6354297435322  C 291.7962622759772 601.4470092133068  292.5081967213115 596.6123424452484  292.5081967213115 591.2655977202869  L 292.5081967213115 35.41078922559392  C 292.5081967213115 22.657695568647522  288.5768051264716 13.186381341652776  280.8233461380005 7.259844429829066  C 274.6383516593057 2.532192208399522  266.12655608380425 0.13510655737703559  255.52459016393442 0.13510655737703559  L 230.6325707357438 0.14152731628103865  L 230.59413197001473 0.1434963918748302  C 229.2604084952933 0.21044349246727023  228.0044207963787 0.7660537446756699  227.05740106301226 1.7080227676854598  C 226.10961126108637 2.650847888055381  225.54851932212955 3.903753200187044  225.47754956855147 5.235933414896966  L 225.47540983606558 5.276855063891787  L 225.47540983606558 5.31786231688201  C 225.47540983606558 10.772944592710388  223.97474607874136 15.302579709412612  221.13565613793543 18.416907437183802  C 218.32139062099768 21.504182832811686  214.22691257664414 23.13599925907321  209.2950819672131 24  L 83.70491803278688 24  C 78.77316384237321 23.13599925907321  74.67877397380886 21.504182832811686  71.86443791623975 18.416907437183802  C 69.0252480428727 15.30249447281632  67.52459016393442 10.772944592710388  67.52459016393442 5.31786231688201  L 67.52459016393442 5.276855063891787  L 67.5223563772733 5.235847810901564  C 67.4513925020812 3.903753200187044  66.89038286052767 2.6509334920507825  65.94259893698771 1.7081083802917796  C 64.99566150102459 0.7661393486710679  63.73975609951333 0.21044349246727023  62.40620897637036 0.1434963918748302  L 62.367764332255376 0.14152731628103865  L 62.329343201684175 0.14152731628103865  L 37.475833079853935 0.13510655737703559  C 26.873435098616824 0.13510655737703559  18.361649810290714 2.532192208399522  12.1766472488153 7.259844429829066  C 4.423197261622704 13.186381341652776  0.4918032786885078 22.657695568647522  0.4918032786885078 35.41078922559392  L 0.4918032786885078 591.2655977202869  C 0.4918032786885078 596.6123424452484  1.2036523037269262 601.4470092133068  2.607669517642137 605.635335689357  C 4.0486500224129145 609.9340817670978  6.23881905977845 613.6169611055968  9.117370605468693 616.5817838434938  Z " stroke-width="2" stroke-dasharray="0" stroke="rgba(255, 255, 255, 0)" fill="none" transform="matrix(1 0 0 1 105 108 )" class="stroke" mask="url(#Clip281)" />
  </g>
</svg>