<?xml version="1.0" encoding="utf-8"?>
<svg version="1.1" xmlns:xlink="http://www.w3.org/1999/xlink" width="293px" height="293px" xmlns="http://www.w3.org/2000/svg">
  <defs>
    <pattern id="BGPattern" patternUnits="userSpaceOnUse" alignment="0 0" imageRepeat="None" />
    <mask fill="white" id="Clip168">
      <path d="M 0 293  L 0 0  L 293 0  L 293 293  L 0 293  Z " fill-rule="evenodd" />
    </mask>
    <mask fill="white" id="Clip169">
      <path d="M 77 72  L 218 72  L 218 223  L 77 223  Z M 0 0  L 293 0  L 293 293  L 0 293  Z " fill-rule="evenodd" />
    </mask>
  </defs>
  <g transform="matrix(1 0 0 1 -105 -174 )">
    <path d="M 0 293  L 0 0  L 293 0  L 293 293  L 0 293  Z " fill-rule="nonzero" fill="rgba(242, 242, 242, 1)" stroke="none" transform="matrix(1 0 0 1 105 174 )" class="fill" />
    <path d="M 0 293  L 0 0  L 293 0  L 293 293  L 0 293  Z " stroke-width="2" stroke-dasharray="0" stroke="rgba(121, 121, 121, 1)" fill="none" transform="matrix(1 0 0 1 105 174 )" class="stroke" mask="url(#Clip168)" />
    <path d="M 292.6464466094067 0.35355339059327373  L 0.35355339059327373 292.6464466094067  M 0.35355339059327373 0.35355339059327373  L 292.6464466094067 292.6464466094067  " stroke-width="1" stroke-dasharray="0" stroke="rgba(121, 121, 121, 1)" fill="none" transform="matrix(1 0 0 1 105 174 )" class="stroke" mask="url(#Clip169)" />
  </g>
</svg>