<?xml version="1.0" encoding="utf-8"?>
<svg version="1.1" xmlns:xlink="http://www.w3.org/1999/xlink" width="11px" height="8px" xmlns="http://www.w3.org/2000/svg">
  <defs>
    <pattern id="BGPattern" patternUnits="userSpaceOnUse" alignment="0 0" imageRepeat="None" />
    <mask fill="white" id="Clip107">
      <path d="M 5.828254098360617 7.938194494487838  C 5.772731700388249 7.938194494487838  5.719865545014329 7.91442507761419  5.6830163934425855 7.872893442622939  L 4.373180327868852 6.456729508196709  C 4.288276503801399 6.365484644908406  4.291003199212582 6.223355646598854  4.379344262295035 6.135434426229494  C 5.196681980762321 5.377698941998084  6.4598262159589686 5.377698941998084  7.277163934426198 6.135434426229494  C 7.365504997508651 6.223355646598854  7.368231692919892 6.365484644908406  7.283327868852438 6.456729508196709  L 5.973491803278648 7.872893442622939  C 5.936642651706904 7.91442507761419  5.8837764963330415 7.938194494487838  5.828254098360617 7.938194494487838  Z M 8.127786885245882 5.452778688524582  C 8.074458097466618 5.454161869116341  8.022909382036858 5.433542382944431  7.985245901639302 5.395762295081958  C 6.7914510406034765 4.20986195796317  4.864286664314477 4.20986195796317  3.670491803278651 5.395762295081958  C 3.634105709009191 5.43426521984091  3.583468407207704 5.4560830961631765  3.5304927234350316 5.4560830961631765  C 3.475695564972739 5.4560830961631765  3.423492041925101 5.432744473957918  3.3869508196721085 5.391909836065565  L 2.6280163934425786 4.56902459016392  C 2.544019022627765 4.478099806745782  2.544019022627765 4.337883799811571  2.6280163934425786 4.246959016393433  C 3.4689534071573576 3.385651866228912  4.621802805734887 2.900024871268876  5.825557377049165 2.900024871268876  C 7.029311948363443 2.900024871268876  8.182161346940973 3.385651866228912  9.023098360655695 4.246959016393433  C 9.107095731470508 4.337883799811564  9.107095731470508 4.478099806745789  9.023098360655695 4.56902459016392  L 8.272639344262245 5.388827868852445  C 8.235406087446108 5.429440116417666  8.182883595039584 5.452628238065223  8.127786885245882 5.452778688524582  Z M 1.7820163934425752 3.565844262295073  C 1.727721853706669 3.56581433057962  1.6759613378324045 3.542871831651567  1.639475409836052 3.5026639344262165  L 0.8805409836065223 2.6828606557376915  C 0.7978522076704735 2.592018132956504  0.7978522076704735 2.4531785883549517  0.8805409836065223 2.362336065573757  C 2.1665299631088146 1.0034453750156231  3.955019972415244 0.23359093858539026  5.825942622950777 0.23359093858539026  C 7.69686527348631 0.23359093858539026  9.485355282792796 1.0034453750156231  10.771344262295031 2.362336065573757  C 10.853673029714514 2.4533175973174863  10.853673029714514 2.5918791239939623  10.771344262295031 2.6828606557376915  L 10.013180327868838 3.5026639344262165  C 9.976688838613995 3.5425730788865764  9.925102021681994 3.565304781015932  9.871024590163927 3.565304781015932  C 9.816947158645803 3.565304781015932  9.765360341713858 3.5425730788865764  9.728868852459016 3.5026639344262165  C 8.706009930356686 2.4442085592245775  7.299769069238323 1.8426052202590775  5.827868852459005 1.8337786885245784  C 4.354671436390902 1.842181440729039  2.947133040650499 2.444420091205707  1.9237868852458746 3.5042049180327766  C 1.8869913236319462 3.5433361145900832  1.8357296626774653 3.5656237932659494  1.7820163934425752 3.565844262295073  Z " fill-rule="evenodd" />
    </mask>
  </defs>
  <g transform="matrix(1 0 0 1 -352 -121 )">
    <path d="M 5.828254098360617 7.938194494487838  C 5.772731700388249 7.938194494487838  5.719865545014329 7.91442507761419  5.6830163934425855 7.872893442622939  L 4.373180327868852 6.456729508196709  C 4.288276503801399 6.365484644908406  4.291003199212582 6.223355646598854  4.379344262295035 6.135434426229494  C 5.196681980762321 5.377698941998084  6.4598262159589686 5.377698941998084  7.277163934426198 6.135434426229494  C 7.365504997508651 6.223355646598854  7.368231692919892 6.365484644908406  7.283327868852438 6.456729508196709  L 5.973491803278648 7.872893442622939  C 5.936642651706904 7.91442507761419  5.8837764963330415 7.938194494487838  5.828254098360617 7.938194494487838  Z M 8.127786885245882 5.452778688524582  C 8.074458097466618 5.454161869116341  8.022909382036858 5.433542382944431  7.985245901639302 5.395762295081958  C 6.7914510406034765 4.20986195796317  4.864286664314477 4.20986195796317  3.670491803278651 5.395762295081958  C 3.634105709009191 5.43426521984091  3.583468407207704 5.4560830961631765  3.5304927234350316 5.4560830961631765  C 3.475695564972739 5.4560830961631765  3.423492041925101 5.432744473957918  3.3869508196721085 5.391909836065565  L 2.6280163934425786 4.56902459016392  C 2.544019022627765 4.478099806745782  2.544019022627765 4.337883799811571  2.6280163934425786 4.246959016393433  C 3.4689534071573576 3.385651866228912  4.621802805734887 2.900024871268876  5.825557377049165 2.900024871268876  C 7.029311948363443 2.900024871268876  8.182161346940973 3.385651866228912  9.023098360655695 4.246959016393433  C 9.107095731470508 4.337883799811564  9.107095731470508 4.478099806745789  9.023098360655695 4.56902459016392  L 8.272639344262245 5.388827868852445  C 8.235406087446108 5.429440116417666  8.182883595039584 5.452628238065223  8.127786885245882 5.452778688524582  Z M 1.7820163934425752 3.565844262295073  C 1.727721853706669 3.56581433057962  1.6759613378324045 3.542871831651567  1.639475409836052 3.5026639344262165  L 0.8805409836065223 2.6828606557376915  C 0.7978522076704735 2.592018132956504  0.7978522076704735 2.4531785883549517  0.8805409836065223 2.362336065573757  C 2.1665299631088146 1.0034453750156231  3.955019972415244 0.23359093858539026  5.825942622950777 0.23359093858539026  C 7.69686527348631 0.23359093858539026  9.485355282792796 1.0034453750156231  10.771344262295031 2.362336065573757  C 10.853673029714514 2.4533175973174863  10.853673029714514 2.5918791239939623  10.771344262295031 2.6828606557376915  L 10.013180327868838 3.5026639344262165  C 9.976688838613995 3.5425730788865764  9.925102021681994 3.565304781015932  9.871024590163927 3.565304781015932  C 9.816947158645803 3.565304781015932  9.765360341713858 3.5425730788865764  9.728868852459016 3.5026639344262165  C 8.706009930356686 2.4442085592245775  7.299769069238323 1.8426052202590775  5.827868852459005 1.8337786885245784  C 4.354671436390902 1.842181440729039  2.947133040650499 2.444420091205707  1.9237868852458746 3.5042049180327766  C 1.8869913236319462 3.5433361145900832  1.8357296626774653 3.5656237932659494  1.7820163934425752 3.565844262295073  Z " fill-rule="nonzero" fill="rgba(0, 0, 0, 1)" stroke="none" transform="matrix(1 0 0 1 352 121 )" class="fill" />
    <path d="M 5.828254098360617 7.938194494487838  C 5.772731700388249 7.938194494487838  5.719865545014329 7.91442507761419  5.6830163934425855 7.872893442622939  L 4.373180327868852 6.456729508196709  C 4.288276503801399 6.365484644908406  4.291003199212582 6.223355646598854  4.379344262295035 6.135434426229494  C 5.196681980762321 5.377698941998084  6.4598262159589686 5.377698941998084  7.277163934426198 6.135434426229494  C 7.365504997508651 6.223355646598854  7.368231692919892 6.365484644908406  7.283327868852438 6.456729508196709  L 5.973491803278648 7.872893442622939  C 5.936642651706904 7.91442507761419  5.8837764963330415 7.938194494487838  5.828254098360617 7.938194494487838  Z " stroke-width="0" stroke-dasharray="0" stroke="rgba(255, 255, 255, 0)" fill="none" transform="matrix(1 0 0 1 352 121 )" class="stroke" mask="url(#Clip107)" />
    <path d="M 8.127786885245882 5.452778688524582  C 8.074458097466618 5.454161869116341  8.022909382036858 5.433542382944431  7.985245901639302 5.395762295081958  C 6.7914510406034765 4.20986195796317  4.864286664314477 4.20986195796317  3.670491803278651 5.395762295081958  C 3.634105709009191 5.43426521984091  3.583468407207704 5.4560830961631765  3.5304927234350316 5.4560830961631765  C 3.475695564972739 5.4560830961631765  3.423492041925101 5.432744473957918  3.3869508196721085 5.391909836065565  L 2.6280163934425786 4.56902459016392  C 2.544019022627765 4.478099806745782  2.544019022627765 4.337883799811571  2.6280163934425786 4.246959016393433  C 3.4689534071573576 3.385651866228912  4.621802805734887 2.900024871268876  5.825557377049165 2.900024871268876  C 7.029311948363443 2.900024871268876  8.182161346940973 3.385651866228912  9.023098360655695 4.246959016393433  C 9.107095731470508 4.337883799811564  9.107095731470508 4.478099806745789  9.023098360655695 4.56902459016392  L 8.272639344262245 5.388827868852445  C 8.235406087446108 5.429440116417666  8.182883595039584 5.452628238065223  8.127786885245882 5.452778688524582  Z " stroke-width="0" stroke-dasharray="0" stroke="rgba(255, 255, 255, 0)" fill="none" transform="matrix(1 0 0 1 352 121 )" class="stroke" mask="url(#Clip107)" />
    <path d="M 1.7820163934425752 3.565844262295073  C 1.727721853706669 3.56581433057962  1.6759613378324045 3.542871831651567  1.639475409836052 3.5026639344262165  L 0.8805409836065223 2.6828606557376915  C 0.7978522076704735 2.592018132956504  0.7978522076704735 2.4531785883549517  0.8805409836065223 2.362336065573757  C 2.1665299631088146 1.0034453750156231  3.955019972415244 0.23359093858539026  5.825942622950777 0.23359093858539026  C 7.69686527348631 0.23359093858539026  9.485355282792796 1.0034453750156231  10.771344262295031 2.362336065573757  C 10.853673029714514 2.4533175973174863  10.853673029714514 2.5918791239939623  10.771344262295031 2.6828606557376915  L 10.013180327868838 3.5026639344262165  C 9.976688838613995 3.5425730788865764  9.925102021681994 3.565304781015932  9.871024590163927 3.565304781015932  C 9.816947158645803 3.565304781015932  9.765360341713858 3.5425730788865764  9.728868852459016 3.5026639344262165  C 8.706009930356686 2.4442085592245775  7.299769069238323 1.8426052202590775  5.827868852459005 1.8337786885245784  C 4.354671436390902 1.842181440729039  2.947133040650499 2.444420091205707  1.9237868852458746 3.5042049180327766  C 1.8869913236319462 3.5433361145900832  1.8357296626774653 3.5656237932659494  1.7820163934425752 3.565844262295073  Z " stroke-width="0" stroke-dasharray="0" stroke="rgba(255, 255, 255, 0)" fill="none" transform="matrix(1 0 0 1 352 121 )" class="stroke" mask="url(#Clip107)" />
  </g>
</svg>